<svg version="1.1" id="Layer_1" xmlns="http://www.w3.org/2000/svg" xmlns:xlink="http://www.w3.org/1999/xlink" x="0px" y="0px"
	 width="100%" viewBox="0 0 786 862" enable-background="new 0 0 786 862" xml:space="preserve">
<path fill="#000000" opacity="1.000000" stroke="none" 
	d="
M448.000000,863.000000 
	C298.666718,863.000000 149.833420,863.000000 1.000100,863.000000 
	C1.000067,575.666809 1.000067,288.333588 1.000033,1.000293 
	C262.999786,1.000195 524.999573,1.000195 786.999512,1.000098 
	C786.999695,288.333038 786.999695,575.666077 786.999878,862.999573 
	C674.166687,863.000000 561.333313,863.000000 448.000000,863.000000 
M288.832275,202.105530 
	C289.230774,201.779678 289.629272,201.453812 290.593231,200.735596 
	C292.105255,197.831619 293.617310,194.927643 295.290833,191.480286 
	C295.235992,190.329514 295.181183,189.178757 295.506531,187.505783 
	C295.373383,186.019562 295.240265,184.533340 295.493500,182.460388 
	C295.450043,177.233475 293.943695,172.592789 289.686676,168.347534 
	C285.451141,165.953445 281.215637,163.559357 276.190521,161.092636 
	C275.134766,161.116974 274.078979,161.141312 272.219086,161.094574 
	C271.144043,161.118408 270.069000,161.142242 268.225464,161.141617 
	C258.270630,163.373047 250.149719,169.055099 241.588837,175.442551 
	C235.669617,178.532745 229.707306,181.545471 223.874268,184.790588 
	C222.918991,185.322067 222.533401,186.877472 221.108673,187.990387 
	C218.729218,189.285278 216.349747,190.580170 213.202194,191.962296 
	C209.769943,193.621582 206.337692,195.280853 202.217957,197.103073 
	C196.255310,200.445465 190.239136,203.696457 184.342178,207.150986 
	C174.740005,212.776123 164.863434,218.028320 155.753296,224.372253 
	C145.770538,231.323853 136.525497,239.334839 126.415245,247.285004 
	C124.238754,250.176498 122.062271,253.067993 119.443336,256.490417 
	C118.459961,258.171448 117.169884,259.748169 116.555580,261.554688 
	C115.178505,265.604431 114.137428,269.768433 112.376816,274.303162 
	C110.973183,279.196289 109.569550,284.089386 108.115646,289.662170 
	C108.132408,290.115906 108.149170,290.569641 107.810143,291.724548 
	C107.595367,293.810455 107.380592,295.896362 107.046974,298.667938 
	C106.752945,299.783447 106.458916,300.898956 106.084709,302.896759 
	C106.111771,305.258881 106.138840,307.620972 106.085983,310.867126 
	C106.018562,313.231384 105.951141,315.595673 105.461929,318.680084 
	C105.363213,331.114136 105.264488,343.548157 105.085747,356.918823 
	C105.056778,376.830109 105.063248,396.741577 104.962112,416.652496 
	C104.946236,419.778046 104.442116,422.901093 104.082993,426.955475 
	C104.059471,465.373474 104.025345,503.791473 104.049446,542.209473 
	C104.050461,543.820190 104.594025,545.430542 104.942123,547.893250 
	C105.016724,549.600342 105.091331,551.307434 105.086525,553.853333 
	C105.357330,556.253601 105.628143,558.653870 105.997177,561.802673 
	C107.232445,567.872559 108.307487,573.980896 109.754135,580.000000 
	C110.892578,584.736694 112.489388,589.363159 113.996384,594.770935 
	C115.638901,597.694031 117.281418,600.617126 119.003548,604.203552 
	C121.963615,608.148987 124.923683,612.094360 128.083221,616.699341 
	C131.042343,619.505249 134.001465,622.311096 137.327194,625.667297 
	C143.738266,630.552856 149.895523,635.825439 156.619308,640.234070 
	C166.974747,647.023926 177.662964,653.314880 188.311111,659.647522 
	C203.615768,668.749451 219.012619,677.696350 234.367538,686.713867 
	C245.199326,693.075073 255.995483,699.497681 266.869965,705.784973 
	C271.982880,708.741150 277.242645,711.443298 282.958008,714.747314 
	C287.295074,717.206299 291.632141,719.665283 296.393982,722.712158 
	C297.261139,725.239563 298.863007,727.761047 298.883179,730.295227 
	C299.115997,759.530273 299.109161,788.767151 299.097809,818.810486 
	C299.814056,830.677612 309.848297,839.895325 322.737549,839.897522 
	C323.492859,839.876343 324.248199,839.855164 325.818634,839.902527 
	C331.565247,839.686340 336.507141,837.795410 340.022400,833.021484 
	C340.022400,833.021484 340.051117,833.077209 340.616730,832.704285 
	C347.029816,826.924866 348.002991,819.277954 348.002808,811.280212 
	C347.998810,661.488892 347.966217,511.697510 348.123749,361.906342 
	C348.130096,355.872375 349.520935,349.732971 351.012634,343.831207 
	C353.590851,333.631104 359.861542,325.340271 366.449860,316.826477 
	C366.695557,316.629242 366.892609,316.391632 367.609894,315.745056 
	C375.091705,310.863312 382.573517,305.981567 390.776978,300.931976 
	C393.530731,299.993805 396.284454,299.055603 399.826721,298.052094 
	C400.878815,297.979736 401.930878,297.907379 403.528412,297.674133 
	C404.023193,297.394226 404.517944,297.114319 405.944366,296.915314 
	C411.957977,296.888367 417.971619,296.861389 424.490723,297.094879 
	C424.998779,297.341583 425.506866,297.588287 426.808563,297.941956 
	C428.570587,298.350159 430.344910,298.711853 432.092651,299.174072 
	C443.521118,302.196411 452.936371,308.784393 461.977020,316.022980 
	C461.977020,316.022980 461.921844,316.050323 462.279816,316.621277 
	C467.148712,324.094940 472.017609,331.568573 476.989807,339.754944 
	C477.619659,341.515106 478.249512,343.275269 478.966675,345.857117 
	C479.644257,354.774536 480.900665,363.691223 480.911499,372.609467 
	C481.046173,483.307709 480.990204,594.006165 481.048615,704.704590 
	C481.050262,707.797180 481.777069,710.889465 482.138702,714.731445 
	C482.901825,717.046875 483.664948,719.362366 484.758362,722.055054 
	C485.133972,722.383911 485.509613,722.712830 486.081573,723.698242 
	C488.040375,725.503662 489.999176,727.309082 492.373260,729.662964 
	C494.570282,730.768250 496.655914,732.297302 498.982727,732.908997 
	C512.365601,736.427673 522.142090,729.245850 531.865906,721.708801 
	C531.865906,721.708801 532.107178,721.703247 532.705261,721.723572 
	C533.934753,721.235413 535.242188,720.884644 536.382141,720.238464 
	C554.026001,710.236267 571.684082,700.258057 589.262024,690.140747 
	C599.767578,684.094116 610.139648,677.815491 621.093872,671.631470 
	C621.394958,671.467407 621.696106,671.303284 622.692444,670.945984 
	C625.158569,669.617432 627.678406,668.379028 630.081787,666.945374 
	C643.256653,659.086670 656.402893,651.179871 670.150146,643.035461 
	C672.115723,641.726807 674.081360,640.418152 676.642700,638.774109 
	C683.111328,633.661865 690.294739,629.216125 695.852844,623.255005 
	C701.731079,616.950623 706.061951,609.203491 711.463196,601.679260 
	C711.661377,601.151794 711.859558,600.624268 712.519897,599.628967 
	C713.052612,598.432068 713.585327,597.235107 714.525208,595.539062 
	C714.721741,594.706299 714.918274,593.873596 715.594971,592.521912 
	C716.435669,589.694153 717.276367,586.866455 718.547974,583.429138 
	C719.066772,580.636230 719.585510,577.843262 720.531128,574.389526 
	C721.298767,566.264648 722.066406,558.139771 722.911865,549.155762 
	C722.885925,547.431824 722.860046,545.707825 723.209045,543.230835 
	C723.461731,541.942017 723.933594,540.653198 723.933899,539.364319 
	C723.938538,521.581116 723.878357,503.797913 723.914185,485.078461 
	C723.887512,470.380341 723.860779,455.682190 724.208984,440.230957 
	C724.471008,438.279053 724.959167,436.327423 724.961548,434.375214 
	C725.007019,396.510803 725.015564,358.646362 724.946350,320.782043 
	C724.942261,318.526764 724.221375,316.272766 723.909790,313.181671 
	C723.884521,311.783508 723.859314,310.385315 723.914429,308.088654 
	C722.190186,297.640656 720.465942,287.192657 718.679626,275.972351 
	C718.398193,274.980988 718.116760,273.989594 717.630493,272.320923 
	C715.453491,268.195068 713.276550,264.069214 710.929321,259.340515 
	C710.308228,258.530334 709.687134,257.720154 708.894592,256.275330 
	C707.709778,255.105530 706.525024,253.935760 705.344971,252.665207 
	C705.344971,252.665207 705.244263,252.660355 705.043518,252.026947 
	C703.438599,249.939194 702.123535,247.521698 700.183105,245.815506 
	C683.679810,231.304123 665.074158,219.869537 645.515137,208.998444 
	C645.208008,208.868622 644.889954,208.776520 644.037537,208.244125 
	C640.686462,206.217529 637.335388,204.190933 633.541626,202.042633 
	C633.541626,202.042633 633.094238,201.939194 632.616882,201.454178 
	C611.411499,188.872177 590.260620,176.196182 568.935791,163.819916 
	C566.075745,162.160034 562.337402,162.013443 558.333191,161.115723 
	C557.884216,161.132446 557.435181,161.149170 556.149902,161.090851 
	C542.993164,161.252441 532.813660,171.391632 533.087402,184.851273 
	C533.691650,188.252853 534.295898,191.654419 535.066284,195.719727 
	C536.347900,197.501724 537.629578,199.283722 539.260315,201.597260 
	C540.486450,202.762299 541.712524,203.927353 543.413574,205.571533 
	C561.614319,216.326233 579.815002,227.080933 598.458435,237.957336 
	C598.458435,237.957336 598.905762,238.060791 599.383118,238.545792 
	C601.066956,239.613754 602.747131,240.687515 604.435242,241.748734 
	C619.898560,251.469788 635.704346,260.695404 650.712158,271.074982 
	C661.411560,278.474823 669.646484,288.533051 672.277344,301.818695 
	C673.785767,309.436279 674.237793,317.263062 675.098938,325.841675 
	C675.454651,329.232025 675.810303,332.622375 676.084961,336.945129 
	C676.111938,345.958527 676.138916,354.971893 676.085815,364.921539 
	C676.112549,392.286346 676.139221,419.651123 675.791016,447.769043 
	C675.538330,449.059021 675.065247,450.348969 675.065308,451.638916 
	C675.066467,478.087646 675.121582,504.536377 675.086060,531.901001 
	C675.112671,535.272156 675.139343,538.643311 675.022644,542.842957 
	C674.737061,547.223694 674.451477,551.604431 674.136047,556.519958 
	C674.145935,556.698242 674.155823,556.876465 673.803467,557.749390 
	C673.590881,559.831543 673.378296,561.913696 672.904724,564.498169 
	C672.658142,565.003357 672.411621,565.508484 672.059692,566.794250 
	C671.428345,569.528137 670.796997,572.262085 669.839661,575.577393 
	C669.173401,577.198608 668.507141,578.819763 667.324585,580.916504 
	C665.845154,582.930725 664.365723,584.944885 662.384705,587.280701 
	C661.576172,588.149292 660.767578,589.017822 659.390076,590.255005 
	C647.922363,597.853271 636.625854,605.727600 624.940918,612.975769 
	C612.116638,620.930481 598.934387,628.307922 585.371033,636.071228 
	C584.900269,636.342224 584.429504,636.613220 583.268738,637.065430 
	C574.815186,642.022583 566.361694,646.979797 557.458801,652.041687 
	C557.458801,652.041687 557.013977,652.164368 556.367126,652.376831 
	C552.934937,654.354797 549.577393,656.479248 546.052917,658.276184 
	C540.798645,660.955078 535.426575,663.402893 530.054016,665.019287 
	C530.036011,566.002014 530.019592,466.984741 529.993103,367.967468 
	C529.992188,364.640717 529.889343,361.313995 529.914429,357.090637 
	C528.554321,348.399597 527.194214,339.708557 525.638489,330.345886 
	C524.780945,328.200928 523.923401,326.055939 522.973877,323.171875 
	C517.582581,308.251190 509.843262,294.819733 497.739655,283.403168 
	C496.513672,282.238007 495.287689,281.072845 493.694794,279.357056 
	C490.812378,276.868469 487.929962,274.379883 484.739471,271.433716 
	C484.151917,271.010956 483.564331,270.588196 482.416870,269.773712 
	C477.624939,266.810547 472.833038,263.847351 467.580872,260.434662 
	C466.404907,259.922211 465.228912,259.409760 463.542114,258.418823 
	C459.374390,256.906677 455.206696,255.394501 450.560608,253.465881 
	C449.368805,253.032410 448.176971,252.598938 446.227234,251.962296 
	C438.156403,250.696838 430.085571,249.431381 421.083405,248.085876 
	C416.384705,248.112564 411.685974,248.139252 406.101624,248.086304 
	C400.406799,248.779190 394.711945,249.472061 388.364624,250.343491 
	C386.897003,250.856293 385.429352,251.369095 383.271790,251.989899 
	C382.189850,252.381805 381.107910,252.773727 379.287598,253.203598 
	C376.524475,254.190735 373.761383,255.177872 370.351593,256.354218 
	C368.549194,257.202850 366.746765,258.051514 364.316803,259.054535 
	C363.197479,259.664429 362.078156,260.274353 360.269379,261.065247 
	C355.637024,264.221375 351.004639,267.377502 345.786652,270.533905 
	C345.171783,270.990265 344.556915,271.446625 343.368835,272.221802 
	C341.876434,273.465332 340.384033,274.708832 338.426880,276.250671 
	C337.937592,276.795837 337.448273,277.341003 336.392456,278.253204 
	C333.890350,280.821808 331.388245,283.390442 328.421234,286.256836 
	C327.931793,286.801544 327.442352,287.346283 326.409912,288.260468 
	C325.237030,289.824463 324.064148,291.388458 322.433685,293.260559 
	C322.010956,293.848145 321.588226,294.435699 320.773712,295.583130 
	C317.570587,300.727386 314.367462,305.871643 310.867950,311.629578 
	C310.656586,312.270233 310.445221,312.910889 309.782135,314.014465 
	C308.576416,316.675323 307.370697,319.336182 305.968872,322.721497 
	C305.278442,325.130249 304.588043,327.539001 303.443176,330.533447 
	C302.350800,336.020905 301.258392,341.508362 300.136139,347.525391 
	C300.145966,347.701904 300.155792,347.878418 299.794220,348.771088 
	C299.584808,351.509125 299.375366,354.247131 299.085815,357.921387 
	C299.057220,361.085327 299.003754,364.249268 299.003632,367.413208 
	C298.999207,463.676483 299.000153,559.939758 298.999054,656.203003 
	C298.999023,658.201477 299.171295,660.224731 298.911377,662.189880 
	C298.734344,663.528564 298.187744,665.657715 297.372559,665.886353 
	C295.964478,666.281189 293.980896,665.875427 292.660614,665.093323 
	C288.922699,662.879028 285.527283,660.081055 281.768188,657.908936 
	C263.063690,647.100830 244.209030,636.550903 225.565338,625.640015 
	C216.094589,620.097473 206.994324,613.924927 197.641953,608.174805 
	C195.427979,606.813599 192.632706,606.351746 190.520340,604.879883 
	C183.770081,600.176392 177.215088,595.192566 170.178467,589.841919 
	C168.805481,588.529785 167.432495,587.217651 165.738388,585.439026 
	C165.128906,585.014221 164.519409,584.589478 163.478058,583.614502 
	C161.356979,579.729492 159.235901,575.844543 157.004349,571.194153 
	C155.947617,566.124268 154.890900,561.054443 153.913574,555.145935 
	C153.642410,552.745544 153.371246,550.345154 153.051910,547.030884 
	C152.979340,543.348755 152.906769,539.666687 152.915192,535.052673 
	C152.888199,523.041077 152.861221,511.029419 152.914261,498.081177 
	C152.981705,470.734039 153.049164,443.386902 153.538208,415.319641 
	C153.679413,414.335785 153.944489,413.351807 153.943726,412.368042 
	C153.924149,387.251282 153.876755,362.134552 153.914062,336.094177 
	C153.962921,332.094208 154.011780,328.094208 154.504333,323.409760 
	C154.614273,320.612457 154.724213,317.815155 154.932327,314.375977 
	C155.526779,311.032928 156.981766,307.569946 156.535995,304.371918 
	C155.616760,297.777252 159.203842,291.976837 161.994308,287.787903 
	C168.229355,278.428101 175.691391,269.591461 186.131668,263.748016 
	C202.359116,254.665497 218.095215,244.705063 234.710602,234.900772 
	C239.171921,232.287140 243.633240,229.673508 248.782227,226.903275 
	C258.080231,221.502594 267.415497,216.164261 276.646729,210.651779 
	C278.634521,209.464767 280.246979,207.649292 282.766937,206.035522 
	C284.585663,204.792831 286.404388,203.550156 288.308441,202.341049 
	C288.308441,202.341049 288.342072,202.255753 288.832275,202.105530 
M470.446960,77.095383 
	C467.526886,73.484085 465.034760,69.391937 461.611816,66.345726 
	C447.672211,53.940231 431.526276,47.266853 412.511902,47.945545 
	C388.602966,48.798946 369.743805,59.062817 357.201385,79.104218 
	C335.770813,113.347969 348.065216,159.061935 385.109802,176.650879 
	C411.335114,189.102814 446.248779,183.615952 466.207031,159.367294 
	C485.905273,135.434586 487.715637,103.680458 470.446960,77.095383 
z"/>
<path fill="#00264B" opacity="1.000000" stroke="none" 
	d="
M104.163757,426.025299 
	C104.442116,422.901093 104.946236,419.778046 104.962112,416.652496 
	C105.063248,396.741577 105.056778,376.830109 105.412338,356.247559 
	C106.479057,353.641937 107.827370,351.716492 107.855843,349.771667 
	C107.991768,340.487152 107.838905,331.195618 107.596672,321.911560 
	C107.561935,320.580353 106.480659,319.276459 105.883728,317.959930 
	C105.951141,315.595673 106.018562,313.231384 106.398010,310.273163 
	C110.487419,306.842682 109.869064,304.318848 106.164886,302.014465 
	C106.458916,300.898956 106.752945,299.783447 107.375381,298.146240 
	C110.268631,295.592957 110.221809,293.378479 108.165932,291.023376 
	C108.149170,290.569641 108.132408,290.115906 108.426216,289.142456 
	C110.144363,283.710449 111.551941,278.798157 112.959526,273.885895 
	C114.137428,269.768433 115.178505,265.604431 116.555580,261.554688 
	C117.169884,259.748169 118.459961,258.171448 120.036819,256.179993 
	C125.853920,255.067734 126.485489,251.031616 126.958969,246.884155 
	C136.525497,239.334839 145.770538,231.323853 155.753296,224.372253 
	C164.863434,218.028320 174.740005,212.776123 184.342178,207.150986 
	C190.239136,203.696457 196.255310,200.445465 202.898163,197.120575 
	C208.565582,198.391403 210.944885,194.495377 213.970276,191.875061 
	C216.349747,190.580170 218.729218,189.285278 221.892487,187.941040 
	C232.039001,185.458237 240.083710,180.717026 247.343246,173.909866 
	C250.457657,172.546478 253.228821,171.273224 256.226959,169.828430 
	C256.969269,169.104599 257.484650,168.552292 258.336304,167.876526 
	C262.113068,165.557404 265.553528,163.361725 268.993958,161.166061 
	C270.069000,161.142242 271.144043,161.118408 272.793274,161.339127 
	C273.911652,162.055786 274.455841,162.527893 275.231628,163.245972 
	C279.975494,166.327957 284.487762,169.163986 289.160950,172.275284 
	C289.881287,173.700378 290.440643,174.850189 291.115997,176.254410 
	C291.487976,177.005890 291.743988,177.502945 292.057373,178.342590 
	C293.112183,180.139175 294.109650,181.593155 295.107117,183.047119 
	C295.240265,184.533340 295.373383,186.019562 295.071777,187.987045 
	C294.091339,189.645538 293.545685,190.822769 292.884033,192.254425 
	C292.512024,193.005890 292.256012,193.502945 291.773041,194.171555 
	C291.030731,194.895416 290.515350,195.447708 290.000000,196.333328 
	C290.000000,197.111099 290.000000,197.555557 289.770386,198.240448 
	C289.141205,199.739197 288.741638,200.997467 288.342072,202.255753 
	C288.342072,202.255753 288.308441,202.341049 287.895569,202.325836 
	C285.665924,203.581497 283.849121,204.852386 282.032318,206.123291 
	C280.246979,207.649292 278.634521,209.464767 276.646729,210.651779 
	C267.415497,216.164261 258.080231,221.502594 248.100922,226.882446 
	C242.229767,226.521881 235.799057,230.489456 234.039566,235.116745 
	C218.095215,244.705063 202.359116,254.665497 186.131668,263.748016 
	C175.691391,269.591461 168.229355,278.428101 161.994308,287.787903 
	C159.203842,291.976837 155.616760,297.777252 156.535995,304.371918 
	C156.981766,307.569946 155.526779,311.032928 154.609985,314.881042 
	C150.891525,318.202301 152.472351,321.148163 154.060638,324.094238 
	C154.011780,328.094208 153.962921,332.094208 153.587555,336.758911 
	C152.507858,340.524719 151.105576,343.625824 151.105743,346.726898 
	C151.106934,368.487152 151.371017,390.247711 151.658966,412.006775 
	C151.676849,413.357330 152.609528,414.695709 153.116608,416.039764 
	C153.049164,443.386902 152.981705,470.734039 152.587662,498.752380 
	C151.528091,501.184143 150.207031,502.929810 150.162003,504.707764 
	C149.944321,513.301331 149.911499,521.908875 150.198975,530.498474 
	C150.261078,532.354492 151.914017,534.157288 152.834198,535.984558 
	C152.906769,539.666687 152.979340,543.348755 152.852844,547.760071 
	C150.642014,551.366455 150.700470,553.917664 153.834167,555.984558 
	C154.890900,561.054443 155.947617,566.124268 156.854599,571.786438 
	C155.299149,578.510559 158.514297,583.769836 163.909927,584.164673 
	C164.519409,584.589478 165.128906,585.014221 165.816101,585.988525 
	C165.397263,590.354980 166.677002,591.967102 170.584702,590.317017 
	C177.215088,595.192566 183.770081,600.176392 190.520340,604.879883 
	C192.632706,606.351746 195.427979,606.813599 197.641953,608.174805 
	C206.994324,613.924927 216.094589,620.097473 225.565338,625.640015 
	C244.209030,636.550903 263.063690,647.100830 281.768188,657.908936 
	C285.527283,660.081055 288.922699,662.879028 292.660614,665.093323 
	C293.980896,665.875427 295.964478,666.281189 297.372559,665.886353 
	C298.187744,665.657715 298.734344,663.528564 298.911377,662.189880 
	C299.171295,660.224731 298.999023,658.201477 298.999054,656.203003 
	C299.000153,559.939758 298.999207,463.676483 299.003632,367.413208 
	C299.003754,364.249268 299.057220,361.085327 299.433655,357.317749 
	C304.276337,354.021423 303.076569,351.076141 300.165619,348.054932 
	C300.155792,347.878418 300.145966,347.701904 300.479492,347.153351 
	C305.464142,343.473511 306.946045,335.360565 303.897644,329.947754 
	C304.588043,327.539001 305.278442,325.130249 306.420349,322.310455 
	C312.691223,319.911621 313.445648,318.038391 310.233826,313.551544 
	C310.445221,312.910889 310.656586,312.270233 311.327087,311.370300 
	C316.961334,310.537415 323.465820,300.574341 321.772522,295.788849 
	C321.669708,295.498413 321.372314,295.276855 321.165466,295.023254 
	C321.588226,294.435699 322.010956,293.848145 322.977875,293.157074 
	C328.116486,293.626038 327.506989,290.740082 326.952942,287.891022 
	C327.442352,287.346283 327.931793,286.801544 329.056702,286.091797 
	C335.093079,285.938599 337.074554,282.859985 336.958984,277.886169 
	C337.448273,277.341003 337.937592,276.795837 338.994873,276.170715 
	C343.010162,276.773285 345.049164,275.983093 343.942047,271.902985 
	C344.556915,271.446625 345.171783,270.990265 346.434631,270.677246 
	C352.561981,271.350372 359.821564,266.152008 360.958832,260.884277 
	C362.078156,260.274353 363.197479,259.664429 364.888367,259.190979 
	C369.348083,261.849487 370.571838,259.705475 370.998260,256.165009 
	C373.761383,255.177872 376.524475,254.190735 379.856689,253.360397 
	C381.604401,252.972107 382.783081,252.427002 383.961731,251.881897 
	C385.429352,251.369095 386.897003,250.856293 388.859497,250.514618 
	C395.314545,254.655853 403.794098,253.444107 406.987274,248.165955 
	C411.685974,248.139252 416.384705,248.112564 421.682281,248.440689 
	C423.759003,250.018021 425.082062,251.976807 426.743469,252.326126 
	C431.901337,253.410568 437.173187,254.097351 442.433685,254.455734 
	C443.892090,254.555084 445.464874,252.975052 446.985168,252.165497 
	C448.176971,252.598938 449.368805,253.032410 450.888123,254.022354 
	C454.143799,259.834167 459.299530,261.568573 464.052948,258.897308 
	C465.228912,259.409760 466.404907,259.922211 467.844269,261.037048 
	C469.813812,267.299988 474.943665,269.058807 479.493378,271.338409 
	C480.264923,271.724976 481.796356,270.594849 482.976746,270.165466 
	C483.564331,270.588196 484.151917,271.010956 484.841125,271.988220 
	C485.412659,277.889648 488.689880,280.536499 494.061707,279.907684 
	C495.287689,281.072845 496.513672,282.238007 497.808777,283.979675 
	C498.399384,286.376617 498.472229,288.520813 499.514709,289.965179 
	C506.592773,299.771667 513.974915,309.343445 518.310486,320.856659 
	C518.843140,322.271088 521.430603,322.911743 523.065857,323.910980 
	C523.923401,326.055939 524.780945,328.200928 525.459534,330.870331 
	C522.272400,335.588654 524.900879,354.448090 528.938904,357.564178 
	C529.194153,357.761108 529.533691,357.848755 529.834045,357.987244 
	C529.889343,361.313995 529.992188,364.640717 529.993103,367.967468 
	C530.019592,466.984741 530.036011,566.002014 529.890503,665.680237 
	C529.388977,671.425598 532.681580,670.004089 534.916077,668.838257 
	C541.342468,665.485229 547.714844,661.976562 553.791626,658.039978 
	C555.441895,656.970886 555.970520,654.170288 557.013977,652.164368 
	C557.013977,652.164368 557.458801,652.041687 557.971802,652.153809 
	C560.647583,652.143494 563.129028,652.663025 564.912842,651.777405 
	C570.092896,649.205322 575.174255,646.329651 579.913147,643.026245 
	C581.781128,641.724060 582.640198,638.974670 583.958740,636.884277 
	C584.429504,636.613220 584.900269,636.342224 585.927185,636.168335 
	C588.484558,636.176147 590.802734,636.710266 592.429138,635.883545 
	C597.890198,633.107849 603.141724,629.908936 608.406494,626.760010 
	C623.909973,617.487122 639.365845,608.134583 654.876831,598.874390 
	C658.347107,596.802673 660.201172,593.977783 659.958984,589.886353 
	C660.767578,589.017822 661.576172,588.149292 663.020569,587.100037 
	C668.264771,586.835571 668.832886,584.142090 667.840881,580.440979 
	C668.507141,578.819763 669.173401,577.198608 670.331238,575.197815 
	C676.193298,571.885010 676.574768,569.382996 672.165100,566.013672 
	C672.411621,565.508484 672.658142,565.003357 673.343872,564.147827 
	C677.955994,561.779480 676.597473,559.447571 674.165710,557.054749 
	C674.155823,556.876465 674.145935,556.698242 674.465576,556.119446 
	C680.179749,551.715027 680.325867,546.316284 675.165955,542.014465 
	C675.139343,538.643311 675.112671,535.272156 675.442139,531.308960 
	C679.752502,528.959534 679.969482,525.347534 679.928345,521.835571 
	C679.659058,498.900299 679.357788,475.964691 678.836548,453.034424 
	C678.790527,451.009064 677.095215,449.021210 676.165894,447.015930 
	C676.139221,419.651123 676.112549,392.286346 676.442017,364.319275 
	C682.205811,359.644226 683.001953,341.227783 677.931702,336.908691 
	C677.443176,336.492554 676.759216,336.305908 676.165955,336.012726 
	C675.810303,332.622375 675.454651,329.232025 675.461731,325.301514 
	C679.239624,323.345490 679.028015,320.454956 678.676514,317.572479 
	C678.435730,315.598114 677.703186,313.638184 677.742310,311.682800 
	C677.951660,301.223419 672.714233,292.399261 668.228333,283.776459 
	C663.226746,274.162476 653.790039,268.037842 644.936157,261.991699 
	C637.136292,256.665375 628.835022,252.073578 620.759583,247.150223 
	C615.787842,244.119156 610.965454,240.794434 605.781799,238.186172 
	C603.936035,237.257477 601.222961,238.052567 598.905762,238.060791 
	C598.905762,238.060791 598.458435,237.957336 598.282471,237.590240 
	C597.129089,235.484726 596.547668,233.221848 595.089172,232.120789 
	C592.339539,230.045044 589.048157,228.700790 586.046204,226.942795 
	C574.165649,219.985367 562.378418,212.863678 550.378540,206.119797 
	C548.347534,204.978394 545.440796,205.395386 542.938660,205.092392 
	C541.712524,203.927353 540.486450,202.762299 539.205322,201.012741 
	C540.034912,196.816818 539.289856,194.494720 534.900146,195.056000 
	C534.295898,191.654419 533.691650,188.252853 533.421143,184.266754 
	C535.621704,180.843445 537.662354,178.101959 539.317627,175.144836 
	C542.406006,169.627579 545.990417,165.036606 552.962158,164.272858 
	C554.399658,164.115387 555.649719,162.246155 556.986206,161.165894 
	C557.435181,161.149170 557.884216,161.132446 558.794800,161.450974 
	C563.156616,164.161667 567.043274,166.559631 570.959229,168.908737 
	C589.205139,179.854126 607.406982,190.875534 625.789795,201.586365 
	C627.658691,202.675293 630.632935,201.867050 633.094238,201.939194 
	C633.094238,201.939194 633.541626,202.042633 633.717957,202.411072 
	C634.660339,207.803696 638.253418,209.805450 644.561035,208.722122 
	C644.889954,208.776520 645.208008,208.868622 645.706787,209.386703 
	C646.833801,211.345978 647.396118,213.466034 648.766357,214.397034 
	C656.448914,219.617096 664.311035,224.574219 672.141174,229.575287 
	C681.329895,235.444122 691.045166,240.533569 697.765808,249.699844 
	C699.107910,251.530380 702.693237,251.716187 705.244263,252.660355 
	C705.244263,252.660355 705.344971,252.665207 705.314148,253.085342 
	C705.290222,256.033661 705.965393,257.819244 709.066040,256.909973 
	C709.687134,257.720154 710.308228,258.530334 710.817993,259.878113 
	C709.410217,265.231140 713.103027,271.749084 717.835388,272.998230 
	C718.116760,273.989594 718.398193,274.980988 718.399658,276.606873 
	C717.624756,279.046661 716.522949,280.929230 716.741394,282.643646 
	C717.616455,289.512024 718.688110,296.374573 720.159851,303.136353 
	C720.620544,305.252930 722.567444,307.045990 723.834106,308.987122 
	C723.859314,310.385315 723.884521,311.783508 723.587036,313.800293 
	C722.547241,315.857056 721.358643,317.244537 721.197815,318.742371 
	C720.612671,324.192749 720.019226,329.682587 720.059692,335.152924 
	C720.263855,362.765289 720.675659,390.376068 720.992371,417.987671 
	C721.055359,423.479218 720.758484,428.991180 721.158936,434.454773 
	C721.322388,436.684570 722.899902,438.810760 723.834106,440.984070 
	C723.860779,455.682190 723.887512,470.380341 723.557983,485.680725 
	C721.836487,488.742889 719.304993,491.198700 719.296448,493.663269 
	C719.243835,508.765808 719.679321,523.873291 720.206665,538.970215 
	C720.265991,540.669922 721.919800,542.313965 722.834106,543.983887 
	C722.860046,545.707825 722.885925,547.431824 722.556396,549.728638 
	C721.175476,552.050842 719.589478,553.695801 719.240112,555.571167 
	C718.488098,559.607483 718.053650,563.767395 718.117737,567.866882 
	C718.155396,570.271118 719.401672,572.656494 720.104248,575.050354 
	C719.585510,577.843262 719.066772,580.636230 717.982178,583.824097 
	C712.721680,586.899780 712.287048,588.565491 715.114807,593.040833 
	C714.918274,593.873596 714.721741,594.706299 714.044739,595.893433 
	C713.062073,597.530762 712.559875,598.813721 712.057678,600.096741 
	C711.859558,600.624268 711.661377,601.151794 710.974854,601.806091 
	C708.819214,603.003845 706.558899,603.691956 705.580383,605.207581 
	C699.078613,615.278809 691.216187,623.927307 681.024780,630.377441 
	C677.879883,632.367737 674.841003,634.569031 676.046997,639.109497 
	C674.081360,640.418152 672.115723,641.726807 669.474487,643.037842 
	C666.303528,643.480530 663.456482,643.294250 661.371033,644.464783 
	C649.648071,651.045227 638.026184,657.818787 626.582642,664.872009 
	C624.541870,666.129822 623.500183,669.008789 621.997192,671.139221 
	C621.696106,671.303284 621.394958,671.467407 620.466309,671.441772 
	C613.827026,668.805420 610.198730,673.807922 605.996521,676.124878 
	C584.829224,687.796021 563.804749,699.736084 542.959106,711.971863 
	C538.862854,714.376282 532.555054,714.981995 532.107178,721.703247 
	C532.107178,721.703247 531.865906,721.708801 531.416748,721.465881 
	C529.234497,721.399231 527.278564,721.120667 525.811035,721.839294 
	C521.812012,723.797913 518.055725,726.245789 514.125122,728.354187 
	C512.740051,729.097107 511.087952,729.944580 509.627808,729.832397 
	C505.226135,729.494263 500.871063,728.575256 496.471344,728.171143 
	C495.008118,728.036804 493.464722,728.775146 491.957977,729.114502 
	C489.999176,727.309082 488.040375,725.503662 486.147949,723.222290 
	C486.358398,722.317078 486.502441,721.887878 486.646484,721.458740 
	C485.907043,721.531738 485.167542,721.604797 484.428070,721.677795 
	C483.664948,719.362366 482.901825,717.046875 482.439056,714.153687 
	C483.492462,710.470886 484.900818,707.366455 484.903931,704.260620 
	C485.016449,591.062073 485.011932,477.863434 484.947876,364.664825 
	C484.945374,360.194977 484.678345,355.608246 483.615753,351.302765 
	C483.039093,348.966309 480.521423,347.108917 478.879333,345.035431 
	C478.249512,343.275269 477.619659,341.515106 477.184143,339.143005 
	C477.580292,336.207642 478.683685,333.433563 477.794800,331.655304 
	C475.984314,328.033264 473.320557,324.750092 470.589447,321.702759 
	C468.276611,319.122192 466.400757,315.466034 461.921844,316.050323 
	C461.921844,316.050323 461.977020,316.022980 461.946716,315.657501 
	C460.684174,313.071045 460.004852,309.970673 458.120941,308.786163 
	C451.147766,304.401825 443.953400,300.263580 436.470520,296.846649 
	C433.396973,295.443146 429.111084,293.698273 426.014923,297.835022 
	C425.506866,297.588287 424.998779,297.341583 424.106445,296.657104 
	C419.468445,290.742737 408.582916,291.100616 405.012726,296.834412 
	C404.517944,297.114319 404.023193,297.394226 403.113434,297.519653 
	C400.961792,295.102386 399.866913,295.962250 399.038208,298.117432 
	C396.284454,299.055603 393.530731,299.993805 390.158386,300.802551 
	C387.507935,300.600525 385.100525,299.790741 383.516785,300.597656 
	C379.259247,302.766876 375.020020,305.242798 371.434723,308.357941 
	C369.320190,310.195160 368.463409,313.479919 367.040985,316.113647 
	C366.892609,316.391632 366.695557,316.629242 365.947998,316.853516 
	C364.069641,317.188080 362.135315,317.018829 361.402313,317.876404 
	C353.436523,327.196075 347.244659,337.431030 345.958069,350.198303 
	C345.944061,350.931061 345.972046,351.465515 345.926880,352.386078 
	C345.235870,357.864960 344.081543,362.957428 344.078156,368.050659 
	C343.981293,513.769165 343.996674,659.487671 344.009491,805.206238 
	C344.010162,812.859070 344.515839,820.527100 340.771881,827.686829 
	C339.982452,829.196472 340.263397,831.265747 340.051117,833.077209 
	C340.051117,833.077209 340.022400,833.021484 339.627106,833.039062 
	C333.812805,833.896057 327.922638,833.746216 325.003510,839.833923 
	C324.248199,839.855164 323.492859,839.876343 322.206940,839.569092 
	C320.427948,838.215942 319.335663,836.716614 317.904968,836.246216 
	C310.634674,833.855896 305.589264,829.451660 303.138153,822.003540 
	C302.612854,820.407349 300.530884,819.323486 299.166046,818.003601 
	C299.109161,788.767151 299.115997,759.530273 298.883179,730.295227 
	C298.863007,727.761047 297.261139,725.239563 296.016815,722.121887 
	C292.183777,717.391174 288.611206,713.462646 282.435852,714.260620 
	C277.242645,711.443298 271.982880,708.741150 266.869965,705.784973 
	C255.995483,699.497681 245.199326,693.075073 234.367538,686.713867 
	C219.012619,677.696350 203.615768,668.749451 188.311111,659.647522 
	C177.662964,653.314880 166.974747,647.023926 156.619308,640.234070 
	C149.895523,635.825439 143.738266,630.552856 137.068909,625.038818 
	C135.393112,619.958557 132.485184,617.096130 127.883759,616.039734 
	C124.923683,612.094360 121.963615,608.148987 118.958412,603.428528 
	C118.882027,598.820923 118.432396,595.232605 113.882584,594.038635 
	C112.489388,589.363159 110.892578,584.736694 109.754135,580.000000 
	C108.307487,573.980896 107.232445,567.872559 106.181999,561.201294 
	C109.164268,557.565186 108.761314,555.037170 105.165932,553.014526 
	C105.091331,551.307434 105.016724,549.600342 105.143913,547.233032 
	C105.895638,541.850586 106.942207,537.125488 106.915764,532.406494 
	C106.729294,499.130554 106.322517,465.855865 105.983513,432.580780 
	C105.976730,431.915314 106.083511,431.203552 105.887115,430.593994 
	C105.388557,429.046631 104.747658,427.545166 104.163757,426.025299 
z"/>
<path fill="#00264B" opacity="1.000000" stroke="none" 
	d="
M470.645142,77.400116 
	C487.715637,103.680458 485.905273,135.434586 466.207031,159.367294 
	C446.248779,183.615952 411.335114,189.102814 385.109802,176.650879 
	C348.065216,159.061935 335.770813,113.347969 357.201385,79.104218 
	C369.743805,59.062817 388.602966,48.798946 412.511902,47.945545 
	C431.526276,47.266853 447.672211,53.940231 461.611816,66.345726 
	C465.034760,69.391937 467.526886,73.484085 470.645142,77.400116 
z"/>
<path fill="#00264B" opacity="1.000000" stroke="none" 
	d="
M346.000000,350.000000 
	C347.244659,337.431030 353.436523,327.196075 361.402313,317.876404 
	C362.135315,317.018829 364.069641,317.188080 365.755768,316.984619 
	C359.861542,325.340271 353.590851,333.631104 351.012634,343.831207 
	C349.520935,349.732971 348.130096,355.872375 348.123749,361.906342 
	C347.966217,511.697510 347.998810,661.488892 348.002808,811.280212 
	C348.002991,819.277954 347.029816,826.924866 340.333923,832.890747 
	C340.263397,831.265747 339.982452,829.196472 340.771881,827.686829 
	C344.515839,820.527100 344.010162,812.859070 344.009491,805.206238 
	C343.996674,659.487671 343.981293,513.769165 344.078156,368.050659 
	C344.081543,362.957428 345.235870,357.864960 345.968811,352.187805 
	C346.055908,351.068939 346.027954,350.534485 346.000000,350.000000 
z"/>
<path fill="#00264B" opacity="1.000000" stroke="none" 
	d="
M478.923004,345.446289 
	C480.521423,347.108917 483.039093,348.966309 483.615753,351.302765 
	C484.678345,355.608246 484.945374,360.194977 484.947876,364.664825 
	C485.011932,477.863434 485.016449,591.062073 484.903931,704.260620 
	C484.900818,707.366455 483.492462,710.470886 482.452576,713.778931 
	C481.777069,710.889465 481.050262,707.797180 481.048615,704.704590 
	C480.990204,594.006165 481.046173,483.307709 480.911499,372.609467 
	C480.900665,363.691223 479.644257,354.774536 478.923004,345.446289 
z"/>
<path fill="#00264B" opacity="1.000000" stroke="none" 
	d="
M724.021484,440.607544 
	C722.899902,438.810760 721.322388,436.684570 721.158936,434.454773 
	C720.758484,428.991180 721.055359,423.479218 720.992371,417.987671 
	C720.675659,390.376068 720.263855,362.765289 720.059692,335.152924 
	C720.019226,329.682587 720.612671,324.192749 721.197815,318.742371 
	C721.358643,317.244537 722.547241,315.857056 723.549194,314.218567 
	C724.221375,316.272766 724.942261,318.526764 724.946350,320.782043 
	C725.015564,358.646362 725.007019,396.510803 724.961548,434.375214 
	C724.959167,436.327423 724.471008,438.279053 724.021484,440.607544 
z"/>
<path fill="#00264B" opacity="1.000000" stroke="none" 
	d="
M599.144409,238.303284 
	C601.222961,238.052567 603.936035,237.257477 605.781799,238.186172 
	C610.965454,240.794434 615.787842,244.119156 620.759583,247.150223 
	C628.835022,252.073578 637.136292,256.665375 644.936157,261.991699 
	C653.790039,268.037842 663.226746,274.162476 668.228333,283.776459 
	C672.714233,292.399261 677.951660,301.223419 677.742310,311.682800 
	C677.703186,313.638184 678.435730,315.598114 678.676514,317.572479 
	C679.028015,320.454956 679.239624,323.345490 675.494995,324.878479 
	C674.237793,317.263062 673.785767,309.436279 672.277344,301.818695 
	C669.646484,288.533051 661.411560,278.474823 650.712158,271.074982 
	C635.704346,260.695404 619.898560,251.469788 604.435242,241.748734 
	C602.747131,240.687515 601.066956,239.613754 599.144409,238.303284 
z"/>
<path fill="#00264B" opacity="1.000000" stroke="none" 
	d="
M532.406250,721.713379 
	C532.555054,714.981995 538.862854,714.376282 542.959106,711.971863 
	C563.804749,699.736084 584.829224,687.796021 605.996521,676.124878 
	C610.198730,673.807922 613.827026,668.805420 620.205261,671.446655 
	C610.139648,677.815491 599.767578,684.094116 589.262024,690.140747 
	C571.684082,700.258057 554.026001,710.236267 536.382141,720.238464 
	C535.242188,720.884644 533.934753,721.235413 532.406250,721.713379 
z"/>
<path fill="#00264B" opacity="1.000000" stroke="none" 
	d="
M675.978455,447.392487 
	C677.095215,449.021210 678.790527,451.009064 678.836548,453.034424 
	C679.357788,475.964691 679.659058,498.900299 679.928345,521.835571 
	C679.969482,525.347534 679.752502,528.959534 675.482056,530.851013 
	C675.121582,504.536377 675.066467,478.087646 675.065308,451.638916 
	C675.065247,450.348969 675.538330,449.059021 675.978455,447.392487 
z"/>
<path fill="#00264B" opacity="1.000000" stroke="none" 
	d="
M659.674561,590.070679 
	C660.201172,593.977783 658.347107,596.802673 654.876831,598.874390 
	C639.365845,608.134583 623.909973,617.487122 608.406494,626.760010 
	C603.141724,629.908936 597.890198,633.107849 592.429138,635.883545 
	C590.802734,636.710266 588.484558,636.176147 586.195679,636.101196 
	C598.934387,628.307922 612.116638,620.930481 624.940918,612.975769 
	C636.625854,605.727600 647.922363,597.853271 659.674561,590.070679 
z"/>
<path fill="#00264B" opacity="1.000000" stroke="none" 
	d="
M632.855591,201.696686 
	C630.632935,201.867050 627.658691,202.675293 625.789795,201.586365 
	C607.406982,190.875534 589.205139,179.854126 570.959229,168.908737 
	C567.043274,166.559631 563.156616,164.161667 559.131104,161.476166 
	C562.337402,162.013443 566.075745,162.160034 568.935791,163.819916 
	C590.260620,176.196182 611.411499,188.872177 632.855591,201.696686 
z"/>
<path fill="#00264B" opacity="1.000000" stroke="none" 
	d="
M104.123375,426.490387 
	C104.747658,427.545166 105.388557,429.046631 105.887115,430.593994 
	C106.083511,431.203552 105.976730,431.915314 105.983513,432.580780 
	C106.322517,465.855865 106.729294,499.130554 106.915764,532.406494 
	C106.942207,537.125488 105.895638,541.850586 105.115265,546.806946 
	C104.594025,545.430542 104.050461,543.820190 104.049446,542.209473 
	C104.025345,503.791473 104.059471,465.373474 104.123375,426.490387 
z"/>
<path fill="#00264B" opacity="1.000000" stroke="none" 
	d="
M723.021606,543.607361 
	C721.919800,542.313965 720.265991,540.669922 720.206665,538.970215 
	C719.679321,523.873291 719.243835,508.765808 719.296448,493.663269 
	C719.304993,491.198700 721.836487,488.742889 723.517944,486.148865 
	C723.878357,503.797913 723.938538,521.581116 723.933899,539.364319 
	C723.933594,540.653198 723.461731,541.942017 723.021606,543.607361 
z"/>
<path fill="#00264B" opacity="1.000000" stroke="none" 
	d="
M705.143921,252.343658 
	C702.693237,251.716187 699.107910,251.530380 697.765808,249.699844 
	C691.045166,240.533569 681.329895,235.444122 672.141174,229.575287 
	C664.311035,224.574219 656.448914,219.617096 648.766357,214.397034 
	C647.396118,213.466034 646.833801,211.345978 645.941345,209.469635 
	C665.074158,219.869537 683.679810,231.304123 700.183105,245.815506 
	C702.123535,247.521698 703.438599,249.939194 705.143921,252.343658 
z"/>
<path fill="#00264B" opacity="1.000000" stroke="none" 
	d="
M543.176147,205.331970 
	C545.440796,205.395386 548.347534,204.978394 550.378540,206.119797 
	C562.378418,212.863678 574.165649,219.985367 586.046204,226.942795 
	C589.048157,228.700790 592.339539,230.045044 595.089172,232.120789 
	C596.547668,233.221848 597.129089,235.484726 598.061157,237.529388 
	C579.815002,227.080933 561.614319,216.326233 543.176147,205.331970 
z"/>
<path fill="#00264B" opacity="1.000000" stroke="none" 
	d="
M153.327393,415.679688 
	C152.609528,414.695709 151.676849,413.357330 151.658966,412.006775 
	C151.371017,390.247711 151.106934,368.487152 151.105743,346.726898 
	C151.105576,343.625824 152.507858,340.524719 153.547638,337.220703 
	C153.876755,362.134552 153.924149,387.251282 153.943726,412.368042 
	C153.944489,413.351807 153.679413,414.335785 153.327393,415.679688 
z"/>
<path fill="#00264B" opacity="1.000000" stroke="none" 
	d="
M622.344849,671.042603 
	C623.500183,669.008789 624.541870,666.129822 626.582642,664.872009 
	C638.026184,657.818787 649.648071,651.045227 661.371033,644.464783 
	C663.456482,643.294250 666.303528,643.480530 669.178955,643.164917 
	C656.402893,651.179871 643.256653,659.086670 630.081787,666.945374 
	C627.678406,668.379028 625.158569,669.617432 622.344849,671.042603 
z"/>
<path fill="#00264B" opacity="1.000000" stroke="none" 
	d="
M676.344849,638.941772 
	C674.841003,634.569031 677.879883,632.367737 681.024780,630.377441 
	C691.216187,623.927307 699.078613,615.278809 705.580383,605.207581 
	C706.558899,603.691956 708.819214,603.003845 710.777588,602.009766 
	C706.061951,609.203491 701.731079,616.950623 695.852844,623.255005 
	C690.294739,629.216125 683.111328,633.661865 676.344849,638.941772 
z"/>
<path fill="#00264B" opacity="1.000000" stroke="none" 
	d="
M523.019897,323.541443 
	C521.430603,322.911743 518.843140,322.271088 518.310486,320.856659 
	C513.974915,309.343445 506.592773,299.771667 499.514709,289.965179 
	C498.472229,288.520813 498.399384,286.376617 497.983307,284.245514 
	C509.843262,294.819733 517.582581,308.251190 523.019897,323.541443 
z"/>
<path fill="#00264B" opacity="1.000000" stroke="none" 
	d="
M492.165619,729.388733 
	C493.464722,728.775146 495.008118,728.036804 496.471344,728.171143 
	C500.871063,728.575256 505.226135,729.494263 509.627808,729.832397 
	C511.087952,729.944580 512.740051,729.097107 514.125122,728.354187 
	C518.055725,726.245789 521.812012,723.797913 525.811035,721.839294 
	C527.278564,721.120667 529.234497,721.399231 531.329468,721.382629 
	C522.142090,729.245850 512.365601,736.427673 498.982727,732.908997 
	C496.655914,732.297302 494.570282,730.768250 492.165619,729.388733 
z"/>
<path fill="#00264B" opacity="1.000000" stroke="none" 
	d="
M426.411743,297.888489 
	C429.111084,293.698273 433.396973,295.443146 436.470520,296.846649 
	C443.953400,300.263580 451.147766,304.401825 458.120941,308.786163 
	C460.004852,309.970673 460.684174,313.071045 461.933044,315.685089 
	C452.936371,308.784393 443.521118,302.196411 432.092651,299.174072 
	C430.344910,298.711853 428.570587,298.350159 426.411743,297.888489 
z"/>
<path fill="#00264B" opacity="1.000000" stroke="none" 
	d="
M676.125488,336.478943 
	C676.759216,336.305908 677.443176,336.492554 677.931702,336.908691 
	C683.001953,341.227783 682.205811,359.644226 676.482056,363.851135 
	C676.138916,354.971893 676.111938,345.958527 676.125488,336.478943 
z"/>
<path fill="#00264B" opacity="1.000000" stroke="none" 
	d="
M556.690552,652.270630 
	C555.970520,654.170288 555.441895,656.970886 553.791626,658.039978 
	C547.714844,661.976562 541.342468,665.485229 534.916077,668.838257 
	C532.681580,670.004089 529.388977,671.425598 529.915771,666.145142 
	C535.426575,663.402893 540.798645,660.955078 546.052917,658.276184 
	C549.577393,656.479248 552.934937,654.354797 556.690552,652.270630 
z"/>
<path fill="#00264B" opacity="1.000000" stroke="none" 
	d="
M723.874268,308.537903 
	C722.567444,307.045990 720.620544,305.252930 720.159851,303.136353 
	C718.688110,296.374573 717.616455,289.512024 716.741394,282.643646 
	C716.522949,280.929230 717.624756,279.046661 718.430725,276.993011 
	C720.465942,287.192657 722.190186,297.640656 723.874268,308.537903 
z"/>
<path fill="#00264B" opacity="1.000000" stroke="none" 
	d="
M556.568054,161.128372 
	C555.649719,162.246155 554.399658,164.115387 552.962158,164.272858 
	C545.990417,165.036606 542.406006,169.627579 539.317627,175.144836 
	C537.662354,178.101959 535.621704,180.843445 533.460388,183.833069 
	C532.813660,171.391632 542.993164,161.252441 556.568054,161.128372 
z"/>
<path fill="#00264B" opacity="1.000000" stroke="none" 
	d="
M299.131927,818.407043 
	C300.530884,819.323486 302.612854,820.407349 303.138153,822.003540 
	C305.589264,829.451660 310.634674,833.855896 317.904968,836.246216 
	C319.335663,836.716614 320.427948,838.215942 321.830078,839.537415 
	C309.848297,839.895325 299.814056,830.677612 299.131927,818.407043 
z"/>
<path fill="#00264B" opacity="1.000000" stroke="none" 
	d="
M583.613708,636.974854 
	C582.640198,638.974670 581.781128,641.724060 579.913147,643.026245 
	C575.174255,646.329651 570.092896,649.205322 564.912842,651.777405 
	C563.129028,652.663025 560.647583,652.143494 558.196472,652.101440 
	C566.361694,646.979797 574.815186,642.022583 583.613708,636.974854 
z"/>
<path fill="#00264B" opacity="1.000000" stroke="none" 
	d="
M105.672829,318.320007 
	C106.480659,319.276459 107.561935,320.580353 107.596672,321.911560 
	C107.838905,331.195618 107.991768,340.487152 107.855843,349.771667 
	C107.827370,351.716492 106.479057,353.641937 105.452347,355.779266 
	C105.264488,343.548157 105.363213,331.114136 105.672829,318.320007 
z"/>
<path fill="#00264B" opacity="1.000000" stroke="none" 
	d="
M152.874695,535.518616 
	C151.914017,534.157288 150.261078,532.354492 150.198975,530.498474 
	C149.911499,521.908875 149.944321,513.301331 150.162003,504.707764 
	C150.207031,502.929810 151.528091,501.184143 152.547638,499.220703 
	C152.861221,511.029419 152.888199,523.041077 152.874695,535.518616 
z"/>
<path fill="#00264B" opacity="1.000000" stroke="none" 
	d="
M462.100830,316.335815 
	C466.400757,315.466034 468.276611,319.122192 470.589447,321.702759 
	C473.320557,324.750092 475.984314,328.033264 477.794800,331.655304 
	C478.683685,333.433563 477.580292,336.207642 477.132507,338.786652 
	C472.017609,331.568573 467.148712,324.094940 462.100830,316.335815 
z"/>
<path fill="#00264B" opacity="1.000000" stroke="none" 
	d="
M529.874268,357.538940 
	C529.533691,357.848755 529.194153,357.761108 528.938904,357.564178 
	C524.900879,354.448090 522.272400,335.588654 525.557373,331.206177 
	C527.194214,339.708557 528.554321,348.399597 529.874268,357.538940 
z"/>
<path fill="#00264B" opacity="1.000000" stroke="none" 
	d="
M367.325439,315.929352 
	C368.463409,313.479919 369.320190,310.195160 371.434723,308.357941 
	C375.020020,305.242798 379.259247,302.766876 383.516785,300.597656 
	C385.100525,299.790741 387.507935,300.600525 389.797546,300.886475 
	C382.573517,305.981567 375.091705,310.863312 367.325439,315.929352 
z"/>
<path fill="#00264B" opacity="1.000000" stroke="none" 
	d="
M446.606201,252.063904 
	C445.464874,252.975052 443.892090,254.555084 442.433685,254.455734 
	C437.173187,254.097351 431.901337,253.410568 426.743469,252.326126 
	C425.082062,251.976807 423.759003,250.018021 422.147949,248.480713 
	C430.085571,249.431381 438.156403,250.696838 446.606201,252.063904 
z"/>
<path fill="#00264B" opacity="1.000000" stroke="none" 
	d="
M247.000000,174.000000 
	C240.083710,180.717026 232.039001,185.458237 222.280396,187.925659 
	C222.533401,186.877472 222.918991,185.322067 223.874268,184.790588 
	C229.707306,181.545471 235.669617,178.532745 242.223572,175.161377 
	C244.238876,174.586807 245.619446,174.293411 247.000000,174.000000 
z"/>
<path fill="#00264B" opacity="1.000000" stroke="none" 
	d="
M720.317749,574.719971 
	C719.401672,572.656494 718.155396,570.271118 718.117737,567.866882 
	C718.053650,563.767395 718.488098,559.607483 719.240112,555.571167 
	C719.589478,553.695801 721.175476,552.050842 722.517456,550.158203 
	C722.066406,558.139771 721.298767,566.264648 720.317749,574.719971 
z"/>
<path fill="#00264B" opacity="1.000000" stroke="none" 
	d="
M247.343246,173.909866 
	C245.619446,174.293411 244.238876,174.586807 242.511383,174.936279 
	C250.149719,169.055099 258.270630,163.373047 268.609711,161.153839 
	C265.553528,163.361725 262.113068,165.557404 258.109375,168.048096 
	C257.030731,168.895416 256.515381,169.447708 256.000000,170.000000 
	C253.228821,171.273224 250.457657,172.546478 247.343246,173.909866 
z"/>
<path fill="#00264B" opacity="1.000000" stroke="none" 
	d="
M405.478546,296.874878 
	C408.582916,291.100616 419.468445,290.742737 423.853699,296.526855 
	C417.971619,296.861389 411.957977,296.888367 405.478546,296.874878 
z"/>
<path fill="#00264B" opacity="1.000000" stroke="none" 
	d="
M320.969604,295.303192 
	C321.372314,295.276855 321.669708,295.498413 321.772522,295.788849 
	C323.465820,300.574341 316.961334,310.537415 311.475250,311.063477 
	C314.367462,305.871643 317.570587,300.727386 320.969604,295.303192 
z"/>
<path fill="#00264B" opacity="1.000000" stroke="none" 
	d="
M406.544434,248.126129 
	C403.794098,253.444107 395.314545,254.655853 389.185730,250.425339 
	C394.711945,249.472061 400.406799,248.779190 406.544434,248.126129 
z"/>
<path fill="#00264B" opacity="1.000000" stroke="none" 
	d="
M482.696808,269.969574 
	C481.796356,270.594849 480.264923,271.724976 479.493378,271.338409 
	C474.943665,269.058807 469.813812,267.299988 468.074402,261.261841 
	C472.833038,263.847351 477.624939,266.810547 482.696808,269.969574 
z"/>
<path fill="#00264B" opacity="1.000000" stroke="none" 
	d="
M303.670410,330.240601 
	C306.946045,335.360565 305.464142,343.473511 300.494446,346.888550 
	C301.258392,341.508362 302.350800,336.020905 303.670410,330.240601 
z"/>
<path fill="#00264B" opacity="1.000000" stroke="none" 
	d="
M360.614105,260.974731 
	C359.821564,266.152008 352.561981,271.350372 346.727417,270.677124 
	C351.004639,267.377502 355.637024,264.221375 360.614105,260.974731 
z"/>
<path fill="#00264B" opacity="1.000000" stroke="none" 
	d="
M289.000000,172.000000 
	C284.487762,169.163986 279.975494,166.327957 275.453674,163.089447 
	C275.956146,162.179733 276.468140,161.672501 276.980133,161.165283 
	C281.215637,163.559357 285.451141,165.953445 289.756470,168.931793 
	C289.550842,170.344025 289.275421,171.172012 289.000000,172.000000 
z"/>
<path fill="#00264B" opacity="1.000000" stroke="none" 
	d="
M675.094299,542.428711 
	C680.325867,546.316284 680.179749,551.715027 674.480530,555.852051 
	C674.451477,551.604431 674.737061,547.223694 675.094299,542.428711 
z"/>
<path fill="#00264B" opacity="1.000000" stroke="none" 
	d="
M325.411072,839.868225 
	C327.922638,833.746216 333.812805,833.896057 339.654785,833.053711 
	C336.507141,837.795410 331.565247,839.686340 325.411072,839.868225 
z"/>
<path fill="#00264B" opacity="1.000000" stroke="none" 
	d="
M717.732910,272.659576 
	C713.103027,271.749084 709.410217,265.231140 710.903076,260.179565 
	C713.276550,264.069214 715.453491,268.195068 717.732910,272.659576 
z"/>
<path fill="#00264B" opacity="1.000000" stroke="none" 
	d="
M463.797546,258.658081 
	C459.299530,261.568573 454.143799,259.834167 451.127289,254.230591 
	C455.206696,255.394501 459.374390,256.906677 463.797546,258.658081 
z"/>
<path fill="#00264B" opacity="1.000000" stroke="none" 
	d="
M163.694000,583.889587 
	C158.514297,583.769836 155.299149,578.510559 156.909821,572.169128 
	C159.235901,575.844543 161.356979,579.729492 163.694000,583.889587 
z"/>
<path fill="#00264B" opacity="1.000000" stroke="none" 
	d="
M289.160980,172.275284 
	C289.275421,171.172012 289.550842,170.344025 289.943665,169.210220 
	C293.943695,172.592789 295.450043,177.233475 295.300293,182.753754 
	C294.109650,181.593155 293.112183,180.139175 292.053497,178.147034 
	C291.661530,177.072586 291.330780,176.536285 291.000000,176.000000 
	C290.440643,174.850189 289.881287,173.700378 289.160980,172.275284 
z"/>
<path fill="#00264B" opacity="1.000000" stroke="none" 
	d="
M493.878235,279.632385 
	C488.689880,280.536499 485.412659,277.889648 484.995178,272.217010 
	C487.929962,274.379883 490.812378,276.868469 493.878235,279.632385 
z"/>
<path fill="#00264B" opacity="1.000000" stroke="none" 
	d="
M234.375092,235.008759 
	C235.799057,230.489456 242.229767,226.521881 247.757080,226.960739 
	C243.633240,229.673508 239.171921,232.287140 234.375092,235.008759 
z"/>
<path fill="#00264B" opacity="1.000000" stroke="none" 
	d="
M644.299316,208.483124 
	C638.253418,209.805450 634.660339,207.803696 633.939331,202.471924 
	C637.335388,204.190933 640.686462,206.217529 644.299316,208.483124 
z"/>
<path fill="#00264B" opacity="1.000000" stroke="none" 
	d="
M112.668167,274.094543 
	C111.551941,278.798157 110.144363,283.710449 108.451347,288.802612 
	C109.569550,284.089386 110.973183,279.196289 112.668167,274.094543 
z"/>
<path fill="#00264B" opacity="1.000000" stroke="none" 
	d="
M282.696930,714.503967 
	C288.611206,713.462646 292.183777,717.391174 295.804443,721.827942 
	C291.632141,719.665283 287.295074,717.206299 282.696930,714.503967 
z"/>
<path fill="#00264B" opacity="1.000000" stroke="none" 
	d="
M336.675720,278.069702 
	C337.074554,282.859985 335.093079,285.938599 329.289124,285.942932 
	C331.388245,283.390442 333.890350,280.821808 336.675720,278.069702 
z"/>
<path fill="#00264B" opacity="1.000000" stroke="none" 
	d="
M715.354858,592.781372 
	C712.287048,588.565491 712.721680,586.899780 717.766724,584.128845 
	C717.276367,586.866455 716.435669,589.694153 715.354858,592.781372 
z"/>
<path fill="#00264B" opacity="1.000000" stroke="none" 
	d="
M310.007996,313.783020 
	C313.445648,318.038391 312.691223,319.911621 306.518433,321.948242 
	C307.370697,319.336182 308.576416,316.675323 310.007996,313.783020 
z"/>
<path fill="#00264B" opacity="1.000000" stroke="none" 
	d="
M127.983490,616.369507 
	C132.485184,617.096130 135.393112,619.958557 136.885620,624.763672 
	C134.001465,622.311096 131.042343,619.505249 127.983490,616.369507 
z"/>
<path fill="#00264B" opacity="1.000000" stroke="none" 
	d="
M672.112427,566.403931 
	C676.574768,569.382996 676.193298,571.885010 670.494263,574.907104 
	C670.796997,572.262085 671.428345,569.528137 672.112427,566.403931 
z"/>
<path fill="#00264B" opacity="1.000000" stroke="none" 
	d="
M299.979919,348.413025 
	C303.076569,351.076141 304.276337,354.021423 299.473694,356.849640 
	C299.375366,354.247131 299.584808,351.509125 299.979919,348.413025 
z"/>
<path fill="#00264B" opacity="1.000000" stroke="none" 
	d="
M213.586243,191.918671 
	C210.944885,194.495377 208.565582,198.391403 203.241913,197.039108 
	C206.337692,195.280853 209.769943,193.621582 213.586243,191.918671 
z"/>
<path fill="#00264B" opacity="1.000000" stroke="none" 
	d="
M113.939484,594.404785 
	C118.432396,595.232605 118.882027,598.820923 118.918610,603.096863 
	C117.281418,600.617126 115.638901,597.694031 113.939484,594.404785 
z"/>
<path fill="#00264B" opacity="1.000000" stroke="none" 
	d="
M126.687103,247.084579 
	C126.485489,251.031616 125.853920,255.067734 120.258041,255.914505 
	C122.062271,253.067993 124.238754,250.176498 126.687103,247.084579 
z"/>
<path fill="#00264B" opacity="1.000000" stroke="none" 
	d="
M105.126228,553.433960 
	C108.761314,555.037170 109.164268,557.565186 106.132889,560.827026 
	C105.628143,558.653870 105.357330,556.253601 105.126228,553.433960 
z"/>
<path fill="#00264B" opacity="1.000000" stroke="none" 
	d="
M106.124794,302.455627 
	C109.869064,304.318848 110.487419,306.842682 106.437973,309.831146 
	C106.138840,307.620972 106.111771,305.258881 106.124794,302.455627 
z"/>
<path fill="#00264B" opacity="1.000000" stroke="none" 
	d="
M534.983215,195.387863 
	C539.289856,194.494720 540.034912,196.816818 539.030762,200.746979 
	C537.629578,199.283722 536.347900,197.501724 534.983215,195.387863 
z"/>
<path fill="#00264B" opacity="1.000000" stroke="none" 
	d="
M154.282486,323.752014 
	C152.472351,321.148163 150.891525,318.202301 154.560883,315.201996 
	C154.724213,317.815155 154.614273,320.612457 154.282486,323.752014 
z"/>
<path fill="#00264B" opacity="1.000000" stroke="none" 
	d="
M673.984619,557.402100 
	C676.597473,559.447571 677.955994,561.779480 673.474365,563.896606 
	C673.378296,561.913696 673.590881,559.831543 673.984619,557.402100 
z"/>
<path fill="#00264B" opacity="1.000000" stroke="none" 
	d="
M153.873871,555.565247 
	C150.700470,553.917664 150.642014,551.366455 152.876923,548.217041 
	C153.371246,550.345154 153.642410,552.745544 153.873871,555.565247 
z"/>
<path fill="#00264B" opacity="1.000000" stroke="none" 
	d="
M370.674927,256.259613 
	C370.571838,259.705475 369.348083,261.849487 365.202148,259.113770 
	C366.746765,258.051514 368.549194,257.202850 370.674927,256.259613 
z"/>
<path fill="#00264B" opacity="1.000000" stroke="none" 
	d="
M290.000000,198.000000 
	C290.000000,197.555557 290.000000,197.111099 290.226959,196.161774 
	C290.969269,195.104584 291.484619,194.552292 292.000000,194.000000 
	C292.256012,193.502945 292.512024,193.005890 293.238770,192.258301 
	C294.182770,192.013046 294.656036,192.018356 295.129333,192.023666 
	C293.617310,194.927643 292.105255,197.831619 290.306396,200.540436 
	C290.013000,199.563522 290.006500,198.781754 290.000000,198.000000 
z"/>
<path fill="#00264B" opacity="1.000000" stroke="none" 
	d="
M667.582764,580.678711 
	C668.832886,584.142090 668.264771,586.835571 663.271362,586.939209 
	C664.365723,584.944885 665.845154,582.930725 667.582764,580.678711 
z"/>
<path fill="#00264B" opacity="1.000000" stroke="none" 
	d="
M170.381592,590.079468 
	C166.677002,591.967102 165.397263,590.354980 165.976654,586.221802 
	C167.432495,587.217651 168.805481,588.529785 170.381592,590.079468 
z"/>
<path fill="#00264B" opacity="1.000000" stroke="none" 
	d="
M343.655457,272.062378 
	C345.049164,275.983093 343.010162,276.773285 339.227234,276.021576 
	C340.384033,274.708832 341.876434,273.465332 343.655457,272.062378 
z"/>
<path fill="#00264B" opacity="1.000000" stroke="none" 
	d="
M107.988037,291.373962 
	C110.221809,293.378479 110.268631,295.592957 107.434799,297.803406 
	C107.380592,295.896362 107.595367,293.810455 107.988037,291.373962 
z"/>
<path fill="#00264B" opacity="1.000000" stroke="none" 
	d="
M326.681427,288.075745 
	C327.506989,290.740082 328.116486,293.626038 323.206665,293.003021 
	C324.064148,291.388458 325.237030,289.824463 326.681427,288.075745 
z"/>
<path fill="#00264B" opacity="1.000000" stroke="none" 
	d="
M282.399628,206.079407 
	C283.849121,204.852386 285.665924,203.581497 287.852936,202.309036 
	C286.404388,203.550156 284.585663,204.792831 282.399628,206.079407 
z"/>
<path fill="#00264B" opacity="1.000000" stroke="none" 
	d="
M708.980347,256.592651 
	C705.965393,257.819244 705.290222,256.033661 705.311768,253.135727 
	C706.525024,253.935760 707.709778,255.105530 708.980347,256.592651 
z"/>
<path fill="#00264B" opacity="1.000000" stroke="none" 
	d="
M383.616760,251.935898 
	C382.783081,252.427002 381.604401,252.972107 380.225861,253.341415 
	C381.107910,252.773727 382.189850,252.381805 383.616760,251.935898 
z"/>
<path fill="#00264B" opacity="1.000000" stroke="none" 
	d="
M399.432465,298.084778 
	C399.866913,295.962250 400.961792,295.102386 402.840698,297.600098 
	C401.930878,297.907379 400.878815,297.979736 399.432465,298.084778 
z"/>
<path fill="#00264B" opacity="1.000000" stroke="none" 
	d="
M295.210083,191.751984 
	C294.656036,192.018356 294.182770,192.013046 293.354736,192.003876 
	C293.545685,190.822769 294.091339,189.645538 294.881683,188.248138 
	C295.181183,189.178757 295.235992,190.329514 295.210083,191.751984 
z"/>
<path fill="#00264B" opacity="1.000000" stroke="none" 
	d="
M484.593201,721.866455 
	C485.167542,721.604797 485.907043,721.531738 486.646484,721.458740 
	C486.502441,721.887878 486.358398,722.317078 486.049805,722.893982 
	C485.509613,722.712830 485.133972,722.383911 484.593201,721.866455 
z"/>
<path fill="#00264B" opacity="1.000000" stroke="none" 
	d="
M712.288818,599.862854 
	C712.559875,598.813721 713.062073,597.530762 713.841125,596.142944 
	C713.585327,597.235107 713.052612,598.432068 712.288818,599.862854 
z"/>
<path fill="#00264B" opacity="1.000000" stroke="none" 
	d="
M276.585327,161.128952 
	C276.468140,161.672501 275.956146,162.179733 275.222046,162.843475 
	C274.455841,162.527893 273.911652,162.055786 273.195343,161.374664 
	C274.078979,161.141312 275.134766,161.116974 276.585327,161.128952 
z"/>
<path fill="#00264B" opacity="1.000000" stroke="none" 
	d="
M289.770386,198.240448 
	C290.006500,198.781754 290.013000,199.563522 290.023651,200.736618 
	C289.629272,201.453812 289.230774,201.779678 288.587158,202.180634 
	C288.741638,200.997467 289.141205,199.739197 289.770386,198.240448 
z"/>
<path fill="#00264B" opacity="1.000000" stroke="none" 
	d="
M291.773041,194.171555 
	C291.484619,194.552292 290.969269,195.104584 290.226959,195.828445 
	C290.515350,195.447708 291.030731,194.895416 291.773041,194.171555 
z"/>
<path fill="#00264B" opacity="1.000000" stroke="none" 
	d="
M256.226959,169.828461 
	C256.515381,169.447708 257.030731,168.895416 257.773041,168.171570 
	C257.484650,168.552292 256.969269,169.104599 256.226959,169.828461 
z"/>
<path fill="#00264B" opacity="1.000000" stroke="none" 
	d="
M291.115967,176.254425 
	C291.330780,176.536285 291.661530,177.072586 291.996155,177.804443 
	C291.743988,177.502945 291.487976,177.005890 291.115967,176.254425 
z"/>
<path fill="#00264B" opacity="1.000000" stroke="none" 
	d="
M345.958069,350.198303 
	C346.027954,350.534485 346.055908,351.068939 346.041931,351.801697 
	C345.972046,351.465515 345.944061,350.931061 345.958069,350.198303 
z"/>
</svg>