<svg version="1.1" id="Layer_1" xmlns="http://www.w3.org/2000/svg" xmlns:xlink="http://www.w3.org/1999/xlink" x="0px" y="0px"
	 width="100%" viewBox="0 0 4608 1152" enable-background="new 0 0 4608 1152" xml:space="preserve">
<path fill="#000000" opacity="1.000000" stroke="none" 
	d="
M3332.000000,1154.000000 
	C2221.333252,1154.000000 1111.666626,1154.000000 2.000000,1154.000000 
	C2.000000,770.000000 2.000000,386.000000 2.000000,2.000000 
	C1538.000000,2.000000 3074.000000,2.000000 4610.000000,2.000000 
	C4610.000000,386.000000 4610.000000,770.000000 4610.000000,1154.000000 
	C4184.333496,1154.000000 3758.666748,1154.000000 3332.000000,1154.000000 
M645.083069,887.957581 
	C647.481689,886.814209 649.967834,885.823242 652.265320,884.503784 
	C675.080078,871.402405 697.914307,858.333679 720.643311,845.084473 
	C749.687378,828.154114 779.629211,812.714172 806.838806,792.737000 
	C832.380249,773.984497 848.588074,749.606079 854.835571,718.221252 
	C858.577454,699.423462 859.125244,680.476746 859.511353,661.587524 
	C860.396667,618.279541 860.176208,574.947510 860.260254,531.625000 
	C860.351501,484.632416 860.464783,437.638306 860.161255,390.647461 
	C860.073242,377.019348 859.407104,363.286865 857.543762,349.804321 
	C854.910217,330.748230 848.148254,313.223572 835.104980,298.385406 
	C824.169067,285.944519 810.922180,276.458099 797.201721,267.705597 
	C776.713928,254.636078 755.757751,242.292435 734.867615,229.864029 
	C710.536377,215.388367 686.137512,201.022476 661.623962,186.858292 
	C643.224243,176.226715 621.195374,184.190521 613.914062,203.769989 
	C608.525330,218.260498 614.400513,233.412033 629.782654,242.906494 
	C647.341431,253.744446 665.253967,264.007263 682.909912,274.690033 
	C709.375427,290.703064 736.118652,306.299194 762.040527,323.154175 
	C780.408386,335.097382 792.029297,352.413116 794.303894,374.794617 
	C795.446655,386.038422 796.178162,397.378845 796.175781,408.675354 
	C796.158264,490.325531 795.986328,571.975891 795.648071,653.625427 
	C795.591614,667.261841 794.931885,680.932373 793.755371,694.518188 
	C792.334290,710.928345 786.964478,725.962219 773.549133,736.547058 
	C764.687805,743.538513 755.373962,750.106689 745.655396,755.833923 
	C712.963501,775.099426 680.012756,793.926025 647.131531,812.869507 
	C637.899048,818.188416 628.599792,823.394226 619.266052,828.533752 
	C612.758362,832.117004 610.366638,830.756165 609.873718,823.176514 
	C609.614624,819.192322 609.743408,815.181030 609.743164,811.182007 
	C609.736694,687.534363 609.836914,563.886414 609.563660,440.239380 
	C609.538879,429.024963 608.129272,417.582977 605.612915,406.649384 
	C598.923401,377.583466 583.497375,353.615295 561.761780,333.150848 
	C541.457153,314.033722 517.707703,301.670898 490.778687,296.647369 
	C463.328247,291.526581 436.125031,293.527283 409.082977,302.793213 
	C355.565887,321.130859 311.020996,379.985321 311.457397,440.682007 
	C312.346405,564.323303 311.724487,687.975464 311.715302,811.623108 
	C311.714966,815.954651 311.844971,820.307373 311.454315,824.608521 
	C311.266022,826.681519 310.006012,828.657166 308.871918,831.613831 
	C304.556122,829.496704 300.930939,827.989197 297.570587,826.027832 
	C265.939117,807.565552 234.287079,789.136719 202.777695,770.467468 
	C183.317215,758.937073 163.502274,747.944702 146.047577,733.289124 
	C136.422821,725.207764 130.054321,715.266296 128.298553,702.954895 
	C126.423485,689.806946 124.458870,676.510681 124.473907,663.281372 
	C124.550781,595.649841 125.119118,528.017639 125.807022,460.388672 
	C126.074379,434.104126 126.727051,407.810181 127.914062,381.552643 
	C128.811142,361.708374 134.966583,343.978485 150.006348,329.633209 
	C161.500549,318.669769 174.670883,310.306732 188.099380,302.416016 
	C220.828705,283.183807 254.085236,264.850586 286.915588,245.787018 
	C292.844910,242.344009 298.613678,237.858856 302.966888,232.617584 
	C313.948303,219.396072 309.216156,195.739273 294.436920,187.049515 
	C282.734528,180.168823 270.881073,180.686020 259.304199,187.265060 
	C224.856277,206.841568 190.205887,226.085526 156.191849,246.392746 
	C136.525375,258.134094 117.331718,270.875793 99.038452,284.646118 
	C82.938469,296.765442 72.924652,313.737366 68.367180,333.633606 
	C63.129341,356.500092 62.483635,379.854340 61.890057,403.092163 
	C60.818417,445.045227 60.414539,487.026031 60.461384,528.994385 
	C60.521633,582.960571 60.956184,636.932495 61.979130,690.887695 
	C62.287876,707.172729 65.828117,723.287964 71.772316,738.614075 
	C80.504219,761.127625 95.723495,778.773682 115.739304,791.585022 
	C147.693375,812.037537 180.246704,831.569092 212.809067,851.051514 
	C243.371399,869.337280 274.250183,887.095398 305.054718,904.973694 
	C309.224670,907.393860 311.470306,910.606689 311.540985,915.383972 
	C311.595215,919.048950 311.710480,922.713806 311.713287,926.378784 
	C311.738953,960.040222 312.127472,993.708008 311.572937,1027.360107 
	C311.347565,1041.034912 322.781799,1056.403442 339.068420,1057.590698 
	C357.184937,1058.911377 371.517242,1049.221558 374.384155,1032.533447 
	C375.558777,1025.695801 375.690613,1018.617737 375.692993,1011.648804 
	C375.757629,823.011108 375.733398,634.373413 375.788086,445.735718 
	C375.789917,439.427979 375.428223,432.851013 376.998474,426.861603 
	C382.448273,406.074371 392.751312,388.452362 410.398193,375.070007 
	C446.484894,347.703918 496.328369,354.287659 525.425964,388.475342 
	C539.526917,405.042999 545.878784,424.506805 545.844788,446.519806 
	C545.624878,588.830933 545.733154,731.142578 545.743347,873.454041 
	C545.743713,878.452454 545.503174,883.483093 545.970703,888.442566 
	C546.932861,898.649292 549.891174,907.935852 558.737854,914.446472 
	C570.950623,923.434265 583.395264,923.184082 596.135986,915.920532 
	C612.034180,906.856812 627.883911,897.707947 645.083069,887.957581 
M2062.403809,439.459686 
	C2055.815918,458.399292 2050.585449,477.692627 2049.894287,497.827240 
	C2049.347656,513.752563 2049.534180,529.713501 2049.778564,545.652710 
	C2050.062256,564.144348 2054.382812,582.028259 2060.278564,599.354919 
	C2069.918213,627.683899 2084.647461,653.252930 2104.695068,675.660461 
	C2125.996826,699.469543 2150.079346,719.921875 2178.978516,733.711914 
	C2210.271240,748.644104 2243.364014,757.012451 2278.379883,756.286438 
	C2286.374268,756.120667 2294.380615,756.443787 2302.371338,756.206848 
	C2331.031494,755.357239 2358.360107,748.503235 2384.438477,736.871338 
	C2414.346924,723.531311 2439.660645,703.961426 2461.675293,679.704712 
	C2476.131592,663.776245 2488.158447,646.381836 2497.912109,627.323730 
	C2509.257080,605.156494 2515.484619,581.550842 2519.110596,556.929565 
	C2524.496338,520.361206 2521.993164,484.404663 2511.855469,449.153290 
	C2498.442627,402.512512 2470.935791,365.070007 2433.314697,334.920135 
	C2402.823730,310.484314 2368.212646,295.232666 2329.620605,288.506470 
	C2310.709961,285.210541 2291.785645,286.171906 2272.834961,285.698242 
	C2248.830322,285.098297 2225.737793,289.869995 2203.420898,298.066376 
	C2159.520508,314.189758 2123.111816,340.473358 2095.124268,378.400116 
	C2081.511230,396.847382 2072.020264,417.252411 2062.403809,439.459686 
M1635.771973,445.195953 
	C1631.344849,440.229523 1626.856323,435.316223 1622.500366,430.288147 
	C1589.577026,392.285522 1556.697754,354.244781 1523.755493,316.258667 
	C1518.738037,310.473053 1513.585083,304.793427 1508.270630,299.280823 
	C1504.580811,295.453491 1499.677124,295.767151 1495.145630,297.055298 
	C1490.304810,298.431305 1490.398315,302.901489 1490.310547,306.951141 
	C1490.252686,309.615997 1490.254517,312.282440 1490.254395,314.948181 
	C1490.252075,452.239227 1490.252075,589.530273 1490.254150,726.821289 
	C1490.254150,729.487061 1490.199707,732.156372 1490.313843,734.817871 
	C1490.695435,743.710327 1492.198486,745.391907 1500.912720,745.640076 
	C1509.237183,745.877197 1517.572632,745.745850 1525.903320,745.735474 
	C1543.725830,745.713196 1543.759277,745.702332 1543.761475,728.026978 
	C1543.773682,632.056519 1543.767456,536.086121 1543.771240,440.115692 
	C1543.771362,436.450317 1543.629517,432.771606 1543.899292,429.124695 
	C1544.055542,427.012360 1544.903076,424.951172 1545.686768,421.905792 
	C1548.289062,424.127289 1550.228638,425.401276 1551.692139,427.088165 
	C1589.650513,470.841370 1627.500610,514.688599 1665.494019,558.411255 
	C1699.764404,597.849182 1734.212524,637.132507 1768.521973,676.536499 
	C1785.557739,696.101624 1802.431030,715.808044 1819.450806,735.387146 
	C1821.845459,738.141968 1824.485107,740.747253 1827.318237,743.042725 
	C1831.614380,746.523315 1836.799194,746.486694 1841.556274,744.675293 
	C1846.093140,742.947815 1845.622925,738.288818 1845.719971,734.294006 
	C1845.776611,731.962524 1845.759766,729.629089 1845.759766,727.296509 
	C1845.761108,589.672241 1845.761475,452.047974 1845.756470,314.423706 
	C1845.756348,311.425079 1845.854614,308.413910 1845.624146,305.430420 
	C1845.095337,298.582275 1843.347290,296.629120 1836.349487,296.423676 
	C1826.028198,296.120636 1815.688965,296.151550 1805.363403,296.348999 
	C1796.020386,296.527679 1794.626709,298.125610 1794.299683,307.725159 
	C1794.197632,310.721069 1794.253418,313.722748 1794.253296,316.721771 
	C1794.250977,360.041748 1794.251831,403.361755 1794.251465,446.681732 
	C1794.251099,501.331573 1794.267700,555.981384 1794.214111,610.631165 
	C1794.210083,614.735657 1793.704346,618.839661 1793.392822,623.530396 
	C1791.078735,622.605530 1789.902954,622.501770 1789.344971,621.860474 
	C1738.429321,563.350159 1687.561035,504.798615 1635.771973,445.195953 
M3477.752197,317.098419 
	C3475.665771,312.564362 3473.551270,308.042969 3471.500000,303.492950 
	C3468.962158,297.863525 3464.533203,296.152374 3458.565674,296.278595 
	C3452.644531,296.403809 3449.719727,299.346405 3447.393799,304.421600 
	C3440.318604,319.858429 3432.806396,335.094269 3425.547852,350.447815 
	C3406.762939,390.180847 3388.022949,429.935272 3369.264160,469.680695 
	C3353.205078,503.706421 3337.118164,537.718933 3321.093750,571.760803 
	C3306.913086,601.885986 3292.833008,632.058472 3278.648926,662.182007 
	C3267.015137,686.888489 3255.235352,711.526306 3243.647461,736.254211 
	C3240.351318,743.288025 3241.524414,745.411865 3249.166260,745.571594 
	C3262.823730,745.857117 3276.492188,745.556213 3290.154541,745.682129 
	C3295.512939,745.731506 3298.873535,743.391541 3301.008545,738.577393 
	C3303.834961,732.204407 3306.929688,725.950256 3309.912598,719.646790 
	C3320.593262,697.078430 3331.241699,674.494690 3341.969482,651.948669 
	C3349.265381,636.616028 3356.767334,621.380798 3363.969238,606.004639 
	C3365.922852,601.833496 3368.817139,599.888367 3373.280518,599.885071 
	C3376.279053,599.882812 3379.277588,599.746338 3382.276123,599.745789 
	C3433.266602,599.736511 3484.257080,599.737488 3535.247559,599.743591 
	C3537.913330,599.743958 3540.580566,599.888611 3543.244141,599.828308 
	C3548.075195,599.718933 3551.575195,601.518616 3553.427246,606.219238 
	C3554.277588,608.377319 3555.569336,610.357117 3556.577393,612.457947 
	C3571.850586,644.278992 3587.107422,676.107971 3602.374023,707.932251 
	C3607.124756,717.835022 3612.065918,727.651367 3616.585938,737.658020 
	C3619.091553,743.205200 3622.858643,745.807800 3628.979736,745.720215 
	C3641.641113,745.539001 3654.308105,745.758606 3666.969238,745.572510 
	C3669.374268,745.537170 3671.762939,744.389526 3674.159912,743.754944 
	C3673.989502,741.369080 3674.268066,739.880615 3673.748535,738.762817 
	C3608.638184,598.659973 3543.468994,458.584320 3477.752197,317.098419 
M4296.255371,587.000000 
	C4296.256348,573.002502 4296.228516,559.004944 4296.265137,545.007507 
	C4296.308594,528.511169 4296.508789,528.280396 4313.071777,528.272278 
	C4369.395508,528.244446 4425.718750,528.261475 4482.042480,528.252747 
	C4485.708008,528.252197 4489.386230,528.355835 4493.036621,528.099365 
	C4500.254395,527.592224 4501.785645,526.247437 4502.085938,519.025757 
	C4502.431641,510.707153 4502.290039,502.365967 4502.265137,494.034851 
	C4502.216797,478.051086 4501.988281,477.782166 4486.097656,477.773041 
	C4429.107422,477.740295 4372.117188,477.761047 4315.126953,477.746307 
	C4311.462402,477.745361 4307.794922,477.682068 4304.133789,477.528870 
	C4299.400879,477.330841 4296.744629,474.856720 4296.498047,470.060333 
	C4296.344727,467.066742 4296.269531,464.065918 4296.268066,461.068298 
	C4296.251953,428.740509 4296.232910,396.412659 4296.268555,364.084900 
	C4296.286621,348.010620 4296.537109,347.746948 4312.417480,347.738922 
	C4370.407715,347.709534 4428.397461,347.726471 4486.387695,347.719238 
	C4489.720215,347.718811 4493.064453,347.828247 4496.382324,347.591736 
	C4503.302734,347.098480 4505.289551,345.337952 4505.555176,338.460083 
	C4505.889160,329.806976 4505.739258,321.133301 4505.718262,312.468719 
	C4505.680176,296.587189 4505.405273,296.285767 4489.356934,296.281464 
	C4413.036621,296.261017 4336.716309,296.260101 4260.395996,296.282471 
	C4243.887207,296.287323 4243.724609,296.455902 4243.723145,313.117432 
	C4243.708496,451.760376 4243.708496,590.403320 4243.724121,729.046265 
	C4243.726074,745.548279 4243.895508,745.713989 4260.560059,745.718628 
	C4335.547363,745.739502 4410.534180,745.728333 4485.521484,745.723938 
	C4487.854004,745.723755 4490.194824,745.782898 4492.518066,745.619629 
	C4500.198730,745.079895 4501.861816,743.598022 4502.137695,735.951294 
	C4502.426270,727.962402 4502.295898,719.956543 4502.267090,711.958435 
	C4502.209961,696.037231 4501.981445,695.765747 4486.034180,695.756592 
	C4429.043945,695.723999 4372.053711,695.744751 4315.063477,695.729736 
	C4311.398926,695.728760 4307.731445,695.669434 4304.071289,695.506775 
	C4299.320312,695.295837 4296.719238,692.749146 4296.491699,687.977173 
	C4296.333008,684.650208 4296.268555,681.315857 4296.266602,677.984741 
	C4296.249512,648.323181 4296.256348,618.661560 4296.255371,587.000000 
M2777.455322,367.420868 
	C2768.718506,346.901672 2759.856201,326.434601 2751.317627,305.833252 
	C2748.560791,299.181274 2744.520508,295.901245 2736.994141,296.178894 
	C2725.015137,296.620758 2713.006836,296.217102 2701.013184,296.351440 
	C2698.227295,296.382660 2695.449463,297.140137 2691.370117,297.761017 
	C2693.912842,304.575500 2695.742676,310.181244 2698.060059,315.577759 
	C2715.005371,355.036652 2732.093018,394.434418 2749.048584,433.888916 
	C2767.443359,476.692383 2785.750732,519.533325 2804.084961,562.362854 
	C2824.778076,610.702698 2845.440430,659.055725 2866.158447,707.384949 
	C2870.749756,718.094971 2875.610596,728.689758 2880.163574,739.415710 
	C2882.372070,744.619202 2886.373047,745.669678 2891.461914,745.614746 
	C2897.675049,745.547546 2899.955566,741.446045 2902.036133,736.638428 
	C2920.801758,693.279358 2939.600342,649.934265 2958.441406,606.607849 
	C2984.322266,547.092896 3010.275391,487.609436 3036.145508,428.089813 
	C3053.661377,387.791534 3071.109375,347.463776 3088.536133,307.126770 
	C3092.285645,298.447662 3091.112549,296.560211 3081.501221,296.359222 
	C3070.510010,296.129333 3059.487793,296.722473 3048.522217,296.143066 
	C3039.523193,295.667572 3034.786377,299.220642 3031.206055,307.537415 
	C3005.666748,366.859650 2979.654297,425.978088 2953.818359,485.172577 
	C2935.581299,526.956848 2917.395264,568.763306 2899.158936,610.547668 
	C2896.820068,615.906494 2894.312256,621.191467 2890.797363,628.886841 
	C2887.908691,623.668030 2885.980469,620.769470 2884.617432,617.625854 
	C2876.800293,599.597168 2869.108398,581.514160 2861.391113,563.442261 
	C2845.181885,525.485291 2829.003906,487.515045 2812.774414,449.566742 
	C2801.253662,422.628082 2789.669922,395.716461 2777.455322,367.420868 
M3878.995605,347.723877 
	C3887.323730,347.752808 3895.659424,347.577148 3903.978027,347.870911 
	C3911.591309,348.139771 3913.126709,349.822113 3913.589355,357.527069 
	C3913.828369,361.511871 3913.709717,365.519653 3913.709961,369.517059 
	C3913.714844,488.448700 3913.712402,607.380310 3913.724609,726.311951 
	C3913.725098,730.307556 3913.798340,734.306213 3913.967529,738.297913 
	C3914.151611,742.631042 3916.574951,745.296875 3920.829102,745.364746 
	C3933.479492,745.566650 3946.135986,745.573181 3958.787109,745.417358 
	C3963.558838,745.358582 3965.983398,742.436035 3966.089600,737.676575 
	C3966.178711,733.680725 3966.268555,729.683777 3966.269043,725.687317 
	C3966.280029,605.089966 3966.270996,484.492676 3966.293457,363.895355 
	C3966.296387,348.042114 3966.609375,347.765198 3982.628662,347.737854 
	C4005.282227,347.699158 4027.936035,347.761749 4050.589600,347.705658 
	C4065.085205,347.669800 4065.556885,347.134583 4065.635498,332.258301 
	C4065.667236,326.261902 4065.652344,320.265198 4065.641846,314.268677 
	C4065.610107,296.311920 4065.607178,296.278748 4048.064697,296.275330 
	C3976.106201,296.261322 3904.147461,296.268890 3832.188965,296.271088 
	C3829.856934,296.271179 3827.521973,296.226105 3825.193604,296.326996 
	C3816.291992,296.712677 3814.585693,298.201294 3814.373535,306.912262 
	C3814.138428,316.567657 3814.172852,326.235107 3814.335693,335.893188 
	C3814.504883,345.918701 3816.060547,347.550903 3826.027588,347.650085 
	C3843.016113,347.819214 3860.007324,347.713379 3878.995605,347.723877 
M419.465759,201.696182 
	C434.641083,209.398331 450.695312,213.017242 467.701111,211.588593 
	C490.516388,209.671860 510.334534,200.726425 525.563477,183.654785 
	C547.110352,159.500763 552.993347,131.007095 545.044983,99.900093 
	C540.930359,83.796829 532.667297,69.396370 519.887207,58.750870 
	C494.710358,37.779171 466.027405,30.719683 434.062073,40.457043 
	C419.441284,44.910862 406.524963,52.475029 396.471130,63.947609 
	C381.021484,81.577492 372.878693,101.903046 373.551361,125.956406 
	C374.491547,159.574982 389.536896,184.149414 419.465759,201.696182 
M1273.760986,555.000000 
	C1273.761353,475.684906 1273.762573,396.369843 1273.758423,317.054749 
	C1273.758301,313.389160 1273.868042,309.714355 1273.653198,306.059906 
	C1273.203979,298.421844 1271.614136,296.692139 1263.979858,296.400116 
	C1256.325317,296.107361 1248.652710,296.266388 1240.988037,296.270538 
	C1221.746460,296.280975 1221.727661,296.290771 1221.726929,315.533051 
	C1221.721191,452.501526 1221.723389,589.469971 1221.726685,726.438477 
	C1221.726807,729.437561 1221.657593,732.442505 1221.813232,735.434692 
	C1222.244629,743.731262 1223.661133,745.339294 1231.965698,745.602112 
	C1240.955078,745.886658 1249.959595,745.762878 1258.956909,745.715210 
	C1272.958008,745.641113 1273.633423,744.934631 1273.751831,730.959961 
	C1273.777222,727.960815 1273.761841,724.961365 1273.761841,721.962036 
	C1273.761597,666.974670 1273.760864,611.987366 1273.760986,555.000000 
z"/>
<path fill="#00264A" opacity="1.000000" stroke="none" 
	d="
M644.418823,888.276672 
	C627.883911,897.707947 612.034180,906.856812 596.135986,915.920532 
	C583.395264,923.184082 570.950623,923.434265 558.737854,914.446472 
	C549.891174,907.935852 546.932861,898.649292 545.970703,888.442566 
	C545.503174,883.483093 545.743713,878.452454 545.743347,873.454041 
	C545.733154,731.142578 545.624878,588.830933 545.844788,446.519806 
	C545.878784,424.506805 539.526917,405.042999 525.425964,388.475342 
	C496.328369,354.287659 446.484894,347.703918 410.398193,375.070007 
	C392.751312,388.452362 382.448273,406.074371 376.998474,426.861603 
	C375.428223,432.851013 375.789917,439.427979 375.788086,445.735718 
	C375.733398,634.373413 375.757629,823.011108 375.692993,1011.648804 
	C375.690613,1018.617737 375.558777,1025.695801 374.384155,1032.533447 
	C371.517242,1049.221558 357.184937,1058.911377 339.068420,1057.590698 
	C322.781799,1056.403442 311.347565,1041.034912 311.572937,1027.360107 
	C312.127472,993.708008 311.738953,960.040222 311.713287,926.378784 
	C311.710480,922.713806 311.595215,919.048950 311.540985,915.383972 
	C311.470306,910.606689 309.224670,907.393860 305.054718,904.973694 
	C274.250183,887.095398 243.371399,869.337280 212.809067,851.051514 
	C180.246704,831.569092 147.693375,812.037537 115.739304,791.585022 
	C95.723495,778.773682 80.504219,761.127625 71.772316,738.614075 
	C65.828117,723.287964 62.287876,707.172729 61.979130,690.887695 
	C60.956184,636.932495 60.521633,582.960571 60.461384,528.994385 
	C60.414539,487.026031 60.818417,445.045227 61.890057,403.092163 
	C62.483635,379.854340 63.129341,356.500092 68.367180,333.633606 
	C72.924652,313.737366 82.938469,296.765442 99.038452,284.646118 
	C117.331718,270.875793 136.525375,258.134094 156.191849,246.392746 
	C190.205887,226.085526 224.856277,206.841568 259.304199,187.265060 
	C270.881073,180.686020 282.734528,180.168823 294.436920,187.049515 
	C309.216156,195.739273 313.948303,219.396072 302.966888,232.617584 
	C298.613678,237.858856 292.844910,242.344009 286.915588,245.787018 
	C254.085236,264.850586 220.828705,283.183807 188.099380,302.416016 
	C174.670883,310.306732 161.500549,318.669769 150.006348,329.633209 
	C134.966583,343.978485 128.811142,361.708374 127.914062,381.552643 
	C126.727051,407.810181 126.074379,434.104126 125.807022,460.388672 
	C125.119118,528.017639 124.550781,595.649841 124.473907,663.281372 
	C124.458870,676.510681 126.423485,689.806946 128.298553,702.954895 
	C130.054321,715.266296 136.422821,725.207764 146.047577,733.289124 
	C163.502274,747.944702 183.317215,758.937073 202.777695,770.467468 
	C234.287079,789.136719 265.939117,807.565552 297.570587,826.027832 
	C300.930939,827.989197 304.556122,829.496704 308.871918,831.613831 
	C310.006012,828.657166 311.266022,826.681519 311.454315,824.608521 
	C311.844971,820.307373 311.714966,815.954651 311.715302,811.623108 
	C311.724487,687.975464 312.346405,564.323303 311.457397,440.682007 
	C311.020996,379.985321 355.565887,321.130859 409.082977,302.793213 
	C436.125031,293.527283 463.328247,291.526581 490.778687,296.647369 
	C517.707703,301.670898 541.457153,314.033722 561.761780,333.150848 
	C583.497375,353.615295 598.923401,377.583466 605.612915,406.649384 
	C608.129272,417.582977 609.538879,429.024963 609.563660,440.239380 
	C609.836914,563.886414 609.736694,687.534363 609.743164,811.182007 
	C609.743408,815.181030 609.614624,819.192322 609.873718,823.176514 
	C610.366638,830.756165 612.758362,832.117004 619.266052,828.533752 
	C628.599792,823.394226 637.899048,818.188416 647.131531,812.869507 
	C680.012756,793.926025 712.963501,775.099426 745.655396,755.833923 
	C755.373962,750.106689 764.687805,743.538513 773.549133,736.547058 
	C786.964478,725.962219 792.334290,710.928345 793.755371,694.518188 
	C794.931885,680.932373 795.591614,667.261841 795.648071,653.625427 
	C795.986328,571.975891 796.158264,490.325531 796.175781,408.675354 
	C796.178162,397.378845 795.446655,386.038422 794.303894,374.794617 
	C792.029297,352.413116 780.408386,335.097382 762.040527,323.154175 
	C736.118652,306.299194 709.375427,290.703064 682.909912,274.690033 
	C665.253967,264.007263 647.341431,253.744446 629.782654,242.906494 
	C614.400513,233.412033 608.525330,218.260498 613.914062,203.769989 
	C621.195374,184.190521 643.224243,176.226715 661.623962,186.858292 
	C686.137512,201.022476 710.536377,215.388367 734.867615,229.864029 
	C755.757751,242.292435 776.713928,254.636078 797.201721,267.705597 
	C810.922180,276.458099 824.169067,285.944519 835.104980,298.385406 
	C848.148254,313.223572 854.910217,330.748230 857.543762,349.804321 
	C859.407104,363.286865 860.073242,377.019348 860.161255,390.647461 
	C860.464783,437.638306 860.351501,484.632416 860.260254,531.625000 
	C860.176208,574.947510 860.396667,618.279541 859.511353,661.587524 
	C859.125244,680.476746 858.577454,699.423462 854.835571,718.221252 
	C848.588074,749.606079 832.380249,773.984497 806.838806,792.737000 
	C779.629211,812.714172 749.687378,828.154114 720.643311,845.084473 
	C697.914307,858.333679 675.080078,871.402405 652.265320,884.503784 
	C649.967834,885.823242 647.481689,886.814209 644.418823,888.276672 
z"/>
<path fill="#00264A" opacity="1.000000" stroke="none" 
	d="
M2062.699219,438.747101 
	C2072.020264,417.252411 2081.511230,396.847382 2095.124268,378.400116 
	C2123.111816,340.473358 2159.520508,314.189758 2203.420898,298.066376 
	C2225.737793,289.869995 2248.830322,285.098297 2272.834961,285.698242 
	C2291.785645,286.171906 2310.709961,285.210541 2329.620605,288.506470 
	C2368.212646,295.232666 2402.823730,310.484314 2433.314697,334.920135 
	C2470.935791,365.070007 2498.442627,402.512512 2511.855469,449.153290 
	C2521.993164,484.404663 2524.496338,520.361206 2519.110596,556.929565 
	C2515.484619,581.550842 2509.257080,605.156494 2497.912109,627.323730 
	C2488.158447,646.381836 2476.131592,663.776245 2461.675293,679.704712 
	C2439.660645,703.961426 2414.346924,723.531311 2384.438477,736.871338 
	C2358.360107,748.503235 2331.031494,755.357239 2302.371338,756.206848 
	C2294.380615,756.443787 2286.374268,756.120667 2278.379883,756.286438 
	C2243.364014,757.012451 2210.271240,748.644104 2178.978516,733.711914 
	C2150.079346,719.921875 2125.996826,699.469543 2104.695068,675.660461 
	C2084.647461,653.252930 2069.918213,627.683899 2060.278564,599.354919 
	C2054.382812,582.028259 2050.062256,564.144348 2049.778564,545.652710 
	C2049.534180,529.713501 2049.347656,513.752563 2049.894287,497.827240 
	C2050.585449,477.692627 2055.815918,458.399292 2062.699219,438.747101 
M2442.398926,424.641632 
	C2433.090820,409.555603 2421.818604,396.290405 2408.631592,384.274689 
	C2378.783936,357.078400 2343.781494,340.708069 2304.085938,336.871185 
	C2240.360107,330.711609 2186.921631,352.886841 2145.334229,401.683044 
	C2105.637695,448.260620 2094.185791,502.997559 2106.188477,561.657471 
	C2119.729492,627.835205 2161.536865,671.655151 2223.686035,696.281311 
	C2245.325684,704.855896 2268.324463,706.212952 2291.485840,705.813477 
	C2331.262695,705.127380 2366.468018,691.401428 2397.903809,668.006348 
	C2426.748779,646.539246 2446.240234,617.703125 2457.995361,583.919922 
	C2467.867676,555.548706 2470.362793,526.307312 2466.695068,496.340424 
	C2463.609863,471.130981 2455.890869,447.744659 2442.398926,424.641632 
z"/>
<path fill="#00254A" opacity="1.000000" stroke="none" 
	d="
M1636.230713,445.722900 
	C1687.561035,504.798615 1738.429321,563.350159 1789.344971,621.860474 
	C1789.902954,622.501770 1791.078735,622.605530 1793.392822,623.530396 
	C1793.704346,618.839661 1794.210083,614.735657 1794.214111,610.631165 
	C1794.267700,555.981384 1794.251099,501.331573 1794.251465,446.681732 
	C1794.251831,403.361755 1794.250977,360.041748 1794.253296,316.721771 
	C1794.253418,313.722748 1794.197632,310.721069 1794.299683,307.725159 
	C1794.626709,298.125610 1796.020386,296.527679 1805.363403,296.348999 
	C1815.688965,296.151550 1826.028198,296.120636 1836.349487,296.423676 
	C1843.347290,296.629120 1845.095337,298.582275 1845.624146,305.430420 
	C1845.854614,308.413910 1845.756348,311.425079 1845.756470,314.423706 
	C1845.761475,452.047974 1845.761108,589.672241 1845.759766,727.296509 
	C1845.759766,729.629089 1845.776611,731.962524 1845.719971,734.294006 
	C1845.622925,738.288818 1846.093140,742.947815 1841.556274,744.675293 
	C1836.799194,746.486694 1831.614380,746.523315 1827.318237,743.042725 
	C1824.485107,740.747253 1821.845459,738.141968 1819.450806,735.387146 
	C1802.431030,715.808044 1785.557739,696.101624 1768.521973,676.536499 
	C1734.212524,637.132507 1699.764404,597.849182 1665.494019,558.411255 
	C1627.500610,514.688599 1589.650513,470.841370 1551.692139,427.088165 
	C1550.228638,425.401276 1548.289062,424.127289 1545.686768,421.905792 
	C1544.903076,424.951172 1544.055542,427.012360 1543.899292,429.124695 
	C1543.629517,432.771606 1543.771362,436.450317 1543.771240,440.115692 
	C1543.767456,536.086121 1543.773682,632.056519 1543.761475,728.026978 
	C1543.759277,745.702332 1543.725830,745.713196 1525.903320,745.735474 
	C1517.572632,745.745850 1509.237183,745.877197 1500.912720,745.640076 
	C1492.198486,745.391907 1490.695435,743.710327 1490.313843,734.817871 
	C1490.199707,732.156372 1490.254150,729.487061 1490.254150,726.821289 
	C1490.252075,589.530273 1490.252075,452.239227 1490.254395,314.948181 
	C1490.254517,312.282440 1490.252686,309.615997 1490.310547,306.951141 
	C1490.398315,302.901489 1490.304810,298.431305 1495.145630,297.055298 
	C1499.677124,295.767151 1504.580811,295.453491 1508.270630,299.280823 
	C1513.585083,304.793427 1518.738037,310.473053 1523.755493,316.258667 
	C1556.697754,354.244781 1589.577026,392.285522 1622.500366,430.288147 
	C1626.856323,435.316223 1631.344849,440.229523 1636.230713,445.722900 
z"/>
<path fill="#00254A" opacity="1.000000" stroke="none" 
	d="
M3478.027344,317.802856 
	C3543.468994,458.584320 3608.638184,598.659973 3673.748535,738.762817 
	C3674.268066,739.880615 3673.989502,741.369080 3674.159912,743.754944 
	C3671.762939,744.389526 3669.374268,745.537170 3666.969238,745.572510 
	C3654.308105,745.758606 3641.641113,745.539001 3628.979736,745.720215 
	C3622.858643,745.807800 3619.091553,743.205200 3616.585938,737.658020 
	C3612.065918,727.651367 3607.124756,717.835022 3602.374023,707.932251 
	C3587.107422,676.107971 3571.850586,644.278992 3556.577393,612.457947 
	C3555.569336,610.357117 3554.277588,608.377319 3553.427246,606.219238 
	C3551.575195,601.518616 3548.075195,599.718933 3543.244141,599.828308 
	C3540.580566,599.888611 3537.913330,599.743958 3535.247559,599.743591 
	C3484.257080,599.737488 3433.266602,599.736511 3382.276123,599.745789 
	C3379.277588,599.746338 3376.279053,599.882812 3373.280518,599.885071 
	C3368.817139,599.888367 3365.922852,601.833496 3363.969238,606.004639 
	C3356.767334,621.380798 3349.265381,636.616028 3341.969482,651.948669 
	C3331.241699,674.494690 3320.593262,697.078430 3309.912598,719.646790 
	C3306.929688,725.950256 3303.834961,732.204407 3301.008545,738.577393 
	C3298.873535,743.391541 3295.512939,745.731506 3290.154541,745.682129 
	C3276.492188,745.556213 3262.823730,745.857117 3249.166260,745.571594 
	C3241.524414,745.411865 3240.351318,743.288025 3243.647461,736.254211 
	C3255.235352,711.526306 3267.015137,686.888489 3278.648926,662.182007 
	C3292.833008,632.058472 3306.913086,601.885986 3321.093750,571.760803 
	C3337.118164,537.718933 3353.205078,503.706421 3369.264160,469.680695 
	C3388.022949,429.935272 3406.762939,390.180847 3425.547852,350.447815 
	C3432.806396,335.094269 3440.318604,319.858429 3447.393799,304.421600 
	C3449.719727,299.346405 3452.644531,296.403809 3458.565674,296.278595 
	C3464.533203,296.152374 3468.962158,297.863525 3471.500000,303.492950 
	C3473.551270,308.042969 3475.665771,312.564362 3478.027344,317.802856 
M3520.983154,550.061340 
	C3524.015137,549.762085 3526.297119,548.567810 3525.571045,545.056763 
	C3525.107666,542.815735 3524.178467,540.632263 3523.203613,538.541748 
	C3511.953857,514.419006 3500.679443,490.307831 3489.362061,466.216675 
	C3481.867676,450.262756 3474.375977,434.306244 3466.697510,418.440674 
	C3464.781738,414.482178 3462.149658,410.870575 3458.860352,405.484222 
	C3446.697266,430.772552 3434.939453,453.854004 3424.415283,477.484863 
	C3413.987305,500.899384 3400.722900,523.124817 3392.632812,547.927246 
	C3395.142822,548.912964 3396.345703,549.794495 3397.552002,549.799744 
	C3438.160889,549.977295 3478.769775,550.071472 3520.983154,550.061340 
z"/>
<path fill="#00264A" opacity="1.000000" stroke="none" 
	d="
M4296.255859,588.000000 
	C4296.256348,618.661560 4296.249512,648.323181 4296.266602,677.984741 
	C4296.268555,681.315857 4296.333008,684.650208 4296.491699,687.977173 
	C4296.719238,692.749146 4299.320312,695.295837 4304.071289,695.506775 
	C4307.731445,695.669434 4311.398926,695.728760 4315.063477,695.729736 
	C4372.053711,695.744751 4429.043945,695.723999 4486.034180,695.756592 
	C4501.981445,695.765747 4502.209961,696.037231 4502.267090,711.958435 
	C4502.295898,719.956543 4502.426270,727.962402 4502.137695,735.951294 
	C4501.861816,743.598022 4500.198730,745.079895 4492.518066,745.619629 
	C4490.194824,745.782898 4487.854004,745.723755 4485.521484,745.723938 
	C4410.534180,745.728333 4335.547363,745.739502 4260.560059,745.718628 
	C4243.895508,745.713989 4243.726074,745.548279 4243.724121,729.046265 
	C4243.708496,590.403320 4243.708496,451.760376 4243.723145,313.117432 
	C4243.724609,296.455902 4243.887207,296.287323 4260.395996,296.282471 
	C4336.716309,296.260101 4413.036621,296.261017 4489.356934,296.281464 
	C4505.405273,296.285767 4505.680176,296.587189 4505.718262,312.468719 
	C4505.739258,321.133301 4505.889160,329.806976 4505.555176,338.460083 
	C4505.289551,345.337952 4503.302734,347.098480 4496.382324,347.591736 
	C4493.064453,347.828247 4489.720215,347.718811 4486.387695,347.719238 
	C4428.397461,347.726471 4370.407715,347.709534 4312.417480,347.738922 
	C4296.537109,347.746948 4296.286621,348.010620 4296.268555,364.084900 
	C4296.232910,396.412659 4296.251953,428.740509 4296.268066,461.068298 
	C4296.269531,464.065918 4296.344727,467.066742 4296.498047,470.060333 
	C4296.744629,474.856720 4299.400879,477.330841 4304.133789,477.528870 
	C4307.794922,477.682068 4311.462402,477.745361 4315.126953,477.746307 
	C4372.117188,477.761047 4429.107422,477.740295 4486.097656,477.773041 
	C4501.988281,477.782166 4502.216797,478.051086 4502.265137,494.034851 
	C4502.290039,502.365967 4502.431641,510.707153 4502.085938,519.025757 
	C4501.785645,526.247437 4500.254395,527.592224 4493.036621,528.099365 
	C4489.386230,528.355835 4485.708008,528.252197 4482.042480,528.252747 
	C4425.718750,528.261475 4369.395508,528.244446 4313.071777,528.272278 
	C4296.508789,528.280396 4296.308594,528.511169 4296.265137,545.007507 
	C4296.228516,559.004944 4296.256348,573.002502 4296.255859,588.000000 
z"/>
<path fill="#00254A" opacity="1.000000" stroke="none" 
	d="
M2777.784668,368.106842 
	C2789.669922,395.716461 2801.253662,422.628082 2812.774414,449.566742 
	C2829.003906,487.515045 2845.181885,525.485291 2861.391113,563.442261 
	C2869.108398,581.514160 2876.800293,599.597168 2884.617432,617.625854 
	C2885.980469,620.769470 2887.908691,623.668030 2890.797363,628.886841 
	C2894.312256,621.191467 2896.820068,615.906494 2899.158936,610.547668 
	C2917.395264,568.763306 2935.581299,526.956848 2953.818359,485.172577 
	C2979.654297,425.978088 3005.666748,366.859650 3031.206055,307.537415 
	C3034.786377,299.220642 3039.523193,295.667572 3048.522217,296.143066 
	C3059.487793,296.722473 3070.510010,296.129333 3081.501221,296.359222 
	C3091.112549,296.560211 3092.285645,298.447662 3088.536133,307.126770 
	C3071.109375,347.463776 3053.661377,387.791534 3036.145508,428.089813 
	C3010.275391,487.609436 2984.322266,547.092896 2958.441406,606.607849 
	C2939.600342,649.934265 2920.801758,693.279358 2902.036133,736.638428 
	C2899.955566,741.446045 2897.675049,745.547546 2891.461914,745.614746 
	C2886.373047,745.669678 2882.372070,744.619202 2880.163574,739.415710 
	C2875.610596,728.689758 2870.749756,718.094971 2866.158447,707.384949 
	C2845.440430,659.055725 2824.778076,610.702698 2804.084961,562.362854 
	C2785.750732,519.533325 2767.443359,476.692383 2749.048584,433.888916 
	C2732.093018,394.434418 2715.005371,355.036652 2698.060059,315.577759 
	C2695.742676,310.181244 2693.912842,304.575500 2691.370117,297.761017 
	C2695.449463,297.140137 2698.227295,296.382660 2701.013184,296.351440 
	C2713.006836,296.217102 2725.015137,296.620758 2736.994141,296.178894 
	C2744.520508,295.901245 2748.560791,299.181274 2751.317627,305.833252 
	C2759.856201,326.434601 2768.718506,346.901672 2777.784668,368.106842 
z"/>
<path fill="#00264A" opacity="1.000000" stroke="none" 
	d="
M3877.996582,347.723450 
	C3860.007324,347.713379 3843.016113,347.819214 3826.027588,347.650085 
	C3816.060547,347.550903 3814.504883,345.918701 3814.335693,335.893188 
	C3814.172852,326.235107 3814.138428,316.567657 3814.373535,306.912262 
	C3814.585693,298.201294 3816.291992,296.712677 3825.193604,296.326996 
	C3827.521973,296.226105 3829.856934,296.271179 3832.188965,296.271088 
	C3904.147461,296.268890 3976.106201,296.261322 4048.064697,296.275330 
	C4065.607178,296.278748 4065.610107,296.311920 4065.641846,314.268677 
	C4065.652344,320.265198 4065.667236,326.261902 4065.635498,332.258301 
	C4065.556885,347.134583 4065.085205,347.669800 4050.589600,347.705658 
	C4027.936035,347.761749 4005.282227,347.699158 3982.628662,347.737854 
	C3966.609375,347.765198 3966.296387,348.042114 3966.293457,363.895355 
	C3966.270996,484.492676 3966.280029,605.089966 3966.269043,725.687317 
	C3966.268555,729.683777 3966.178711,733.680725 3966.089600,737.676575 
	C3965.983398,742.436035 3963.558838,745.358582 3958.787109,745.417358 
	C3946.135986,745.573181 3933.479492,745.566650 3920.829102,745.364746 
	C3916.574951,745.296875 3914.151611,742.631042 3913.967529,738.297913 
	C3913.798340,734.306213 3913.725098,730.307556 3913.724609,726.311951 
	C3913.712402,607.380310 3913.714844,488.448700 3913.709961,369.517059 
	C3913.709717,365.519653 3913.828369,361.511871 3913.589355,357.527069 
	C3913.126709,349.822113 3911.591309,348.139771 3903.978027,347.870911 
	C3895.659424,347.577148 3887.323730,347.752808 3877.996582,347.723450 
z"/>
<path fill="#00264A" opacity="1.000000" stroke="none" 
	d="
M418.808228,201.342178 
	C389.536896,184.149414 374.491547,159.574982 373.551361,125.956406 
	C372.878693,101.903046 381.021484,81.577492 396.471130,63.947609 
	C406.524963,52.475029 419.441284,44.910862 434.062073,40.457043 
	C466.027405,30.719683 494.710358,37.779171 519.887207,58.750870 
	C532.667297,69.396370 540.930359,83.796829 545.044983,99.900093 
	C552.993347,131.007095 547.110352,159.500763 525.563477,183.654785 
	C510.334534,200.726425 490.516388,209.671860 467.701111,211.588593 
	C450.695312,213.017242 434.641083,209.398331 418.808228,201.342178 
z"/>
<path fill="#00264A" opacity="1.000000" stroke="none" 
	d="
M1273.760620,556.000000 
	C1273.760864,611.987366 1273.761597,666.974670 1273.761841,721.962036 
	C1273.761841,724.961365 1273.777222,727.960815 1273.751831,730.959961 
	C1273.633423,744.934631 1272.958008,745.641113 1258.956909,745.715210 
	C1249.959595,745.762878 1240.955078,745.886658 1231.965698,745.602112 
	C1223.661133,745.339294 1222.244629,743.731262 1221.813232,735.434692 
	C1221.657593,732.442505 1221.726807,729.437561 1221.726685,726.438477 
	C1221.723389,589.469971 1221.721191,452.501526 1221.726929,315.533051 
	C1221.727661,296.290771 1221.746460,296.280975 1240.988037,296.270538 
	C1248.652710,296.266388 1256.325317,296.107361 1263.979858,296.400116 
	C1271.614136,296.692139 1273.203979,298.421844 1273.653198,306.059906 
	C1273.868042,309.714355 1273.758301,313.389160 1273.758423,317.054749 
	C1273.762573,396.369843 1273.761353,475.684906 1273.760620,556.000000 
z"/>
<path fill="#000000" opacity="1.000000" stroke="none" 
	d="
M2442.759766,425.277039 
	C2455.890869,447.744659 2463.609863,471.130981 2466.695068,496.340424 
	C2470.362793,526.307312 2467.867676,555.548706 2457.995361,583.919922 
	C2446.240234,617.703125 2426.748779,646.539246 2397.903809,668.006348 
	C2366.468018,691.401428 2331.262695,705.127380 2291.485840,705.813477 
	C2268.324463,706.212952 2245.325684,704.855896 2223.686035,696.281311 
	C2161.536865,671.655151 2119.729492,627.835205 2106.188477,561.657471 
	C2094.185791,502.997559 2105.637695,448.260620 2145.334229,401.683044 
	C2186.921631,352.886841 2240.360107,330.711609 2304.085938,336.871185 
	C2343.781494,340.708069 2378.783936,357.078400 2408.631592,384.274689 
	C2421.818604,396.290405 2433.090820,409.555603 2442.759766,425.277039 
z"/>
<path fill="#000001" opacity="1.000000" stroke="none" 
	d="
M3520.181152,550.119507 
	C3478.769775,550.071472 3438.160889,549.977295 3397.552002,549.799744 
	C3396.345703,549.794495 3395.142822,548.912964 3392.632812,547.927246 
	C3400.722900,523.124817 3413.987305,500.899384 3424.415283,477.484863 
	C3434.939453,453.854004 3446.697266,430.772552 3458.860352,405.484222 
	C3462.149658,410.870575 3464.781738,414.482178 3466.697510,418.440674 
	C3474.375977,434.306244 3481.867676,450.262756 3489.362061,466.216675 
	C3500.679443,490.307831 3511.953857,514.419006 3523.203613,538.541748 
	C3524.178467,540.632263 3525.107666,542.815735 3525.571045,545.056763 
	C3526.297119,548.567810 3524.015137,549.762085 3520.181152,550.119507 
z"/>
</svg>